<mxfile host="app.diagrams.net" modified="2023-07-10T15:53:48.472Z" agent="Mozilla/5.0 (Macintosh; Intel Mac OS X 10_15_7) AppleWebKit/605.1.15 (KHTML, like Gecko) Version/16.4 Safari/605.1.15" etag="gga2D5mHJinchOVbMlcI" version="21.6.1" type="device">
  <diagram name="Page-1" id="Y3HxazckhpXceH8nnnnS">
    <mxGraphModel dx="757" dy="470" grid="1" gridSize="10" guides="1" tooltips="1" connect="1" arrows="1" fold="1" page="1" pageScale="1" pageWidth="827" pageHeight="1169" math="0" shadow="0">
      <root>
        <mxCell id="0" />
        <mxCell id="1" parent="0" />
        <mxCell id="80G_cJ_iZyhu6avmu4dn-9" value="" style="rounded=1;whiteSpace=wrap;html=1;dashed=1;" vertex="1" parent="1">
          <mxGeometry x="95" y="40" width="450" height="130" as="geometry" />
        </mxCell>
        <mxCell id="80G_cJ_iZyhu6avmu4dn-1" value="&lt;br&gt;&lt;br&gt;Function code" style="rounded=1;whiteSpace=wrap;html=1;" vertex="1" parent="1">
          <mxGeometry x="120" y="80" width="120" height="70" as="geometry" />
        </mxCell>
        <mxCell id="80G_cJ_iZyhu6avmu4dn-2" value="&lt;br&gt;&lt;br&gt;Function configuration" style="rounded=1;whiteSpace=wrap;html=1;" vertex="1" parent="1">
          <mxGeometry x="260" y="80" width="120" height="70" as="geometry" />
        </mxCell>
        <mxCell id="80G_cJ_iZyhu6avmu4dn-3" value="&lt;br&gt;&lt;br&gt;FaaS API communication" style="rounded=1;whiteSpace=wrap;html=1;" vertex="1" parent="1">
          <mxGeometry x="400" y="80" width="120" height="70" as="geometry" />
        </mxCell>
        <mxCell id="80G_cJ_iZyhu6avmu4dn-5" value="" style="shape=image;verticalLabelPosition=bottom;labelBackgroundColor=default;verticalAlign=top;aspect=fixed;imageAspect=0;image=data:image/png,iVBORw0KGgoAAAANSUhEUgAAAgAAAAIACAYAAAD0eNT6AAAACXBIWXMAAAsTAAALEwEAmpwYAAAgAElEQVR4nO3dd7Btd3Uf8PVUeEgUS4BQwKDYIhYMxYPAARwkBguG4qFkkBgiPEj2UMZIhJJQEorfg1ASypgSAw5lQHgAM5TYyAbhUALCsQSDwAaMwZQARnRrLCyEJZTsrYvw0+H33rtlr7N2+Xxmvv+ftc9v3++659x7TgQAAAAAAAAAAAAAAAAAAAAAAAAAAAAAAAAAAAAAAAAAAAAAAAAAAAAAAAAAAAAAAAAAAAAAAAAAAAAAAAAAAAAAAAAAAAAAAAAAAAAAAAAAAAAAAAAAAAAAAAAAAAAAAAAAAAAAAAAAAAAAAAAAAAAAAAAAAAAAAAAAAAAAAAAAAAAAAAAAAAAAAAAAAAAAAAAAAAAAAAAAAAAAAMCqQ7uc1uX1XS7o8vEuf9blOV1+rct16h4aAJDhPl3+tsv/O0B+0OXcLv++y21qHiYAMJT/0uWqOHD5t/J/u7ymy0O73GjtjxoA2LZnxNaLv5Uru/xFbLxdcFKXw9Y5BACweSd2uSKGWQBabxf0fz/wtC53XtdAAMDBvT9yyr+V/u8LXtHlTmuZDABo+qXY3vv+Q+R/dblV/ogAwKr/FDXlv+9bBPdOnxIAuJYPR+0C0OeHXe6WPSgAsOHoyPvjv63m812OzB0XAOg9LOqLf988PndcAKD3hqgv/X3zudRpAYA4pMs3o770V3Ns5tAAsHS/EvVl38rJmUMDwNLtifqyb+WkzKEBYOn6z+uvLvtWfjFzaABYsmO6/Djqy3413+2yK3FuAFi0R0R92bfytsyhAWDp3hz1Zd/Kb2UODQBLdmhsvNReXfar6b+Q6OaJcwPAot096su+lY9nDg0AS/fcqC/7Vp6TOTQALN0nor7sW/nVzKEBYMluFhvvtVeX/Wq+Fxt/mwAAJHhk1Jd9K3+QOTQALN3bo77sW/mNzKEBYMkO6/L3UV/2q+k/kfCmiXMDwKLdM+rLvpU/T5wZABbvv0V92bfyrMyhAWDp/irqy76VO2cODQBLdsuoL/pWLg7f/gcAaX476su+lddnDg0AS/dHUV/2rTw0c2gAWLLdXS6N+rJfzRVdjkqcGwAW7T5RX/atfChxZgBYvN+N+rJv5WmZQwPA0v1N1Jd9K7+cOTQALNnxUV/0rXwt/PsfAKR5fNSXfSu/nzk0ACzde6K+7Fv5t5lDA8CSHdHlsqgv+9X8qMsNEucGgEV7QNSXfSt/ljk0ACzd70V92bfyHzKHBoCl+2LUl30rt8kcGgCW7LZRX/StfClzaABYuidHfdm38orMoQFg6d4f9WXfyq9nDg0AS3b9LpdHfdmvpv+XxCMT5waARXtI1Jd9K3+SOTQALN1ror7sW3lc5tAAsGT9F+x8PerLvpVbJc4NAIt2x6gv+lb+OnNoAFi6/xz1Zd/KSzKHBpiLW3T5N13uERufmnZo7cNhQj4c9WXfyr0zhx6B/h7t79X+nu3v3VvUPhxgSvp/j3p6l8/Fz/7w/E5sfH/6vyx7dEzB0V2uiPqyX82lXXYnzl3pF7r8j9i4R1tve/SvyPjXR2C/+t8aNvOHWz8MX6TC/j0s6su+lf+ZOXSh/xgb9+TB5v9al5OLHiMwYg+Pje9H38oP1P43Dm8LsOoNUV/2rTwmceYK/b3X34NbuQb9BzM9vOLBAuP077pcGdv7ofrWLoet/yEzUod0+WbUl30rxyXOvW59+b8xtncdftzlzPU/ZGBsdlL+lgBW/euoL/pWPpU59JrtpPwtAcDVhih/SwD72hP1Zd/KCzKHXqMhyt8SAAs3ZPlbArjGX0R92bdyj8yh12TI8rcEwEJllL8lgJvERqFUl/1qLulyeOLc65BR/pYAWJjM8rcELNsjor7sW3lb5tBrkFn+lgBYiHWUvyVgud4c9WXfym9lDp1sHeVvCYCZW2f5WwKWpy+q70Z92a/mqi43T5w70zrL3xIAM1VR/paAZbl71Jd9Kx/PHDpRRflbAmBmKsvfErAcz436sm/lOZlDJ6ksf0sAzMQYyt8SsAyfiPoz1sqvZg6dYAzlbwmAiRtT+VsC5u1msfFee/X5Ws33YlrfVTGm8rcEwESNsfwtAfP1yKg/V638QebQAxtj+VsCYGLOiPGW/zU5Jza+NIZ5eHvUn6lWfiNz6AH190J/T1RfrwOl/5lyRtYFAHZuzL/5r+aFSdeA9eo/Ya//pL3q87Sa/rfWmybOPaQXR/312uw1PTPpGgA7MIXf/FfzkJQrwTrdM+rPUSv/J3HmIZ0W9ddqK/FKAIzMFMu/z5e67E64HqxP/0pO9Tlq5VmZQw/kul2+HPXXyhIAEzWll/1b8SrAtH066s9QK3fOHHogU/vtf994OwCKTfU3/33z+sGvCutyXNSfn1Yu7rIrce6hvCHqr9VO4pUAKDL13/yvyYeHvjCszWOj/vy0MpWl8vyov1Y7jVcCYM3m8Jv/Nfn0wNeG9fmjqD8/rTw0c+gBjfXtk63GKwGwJnP5zf+avH/Yy8Oa9H+8eWnUn5/VXNHlqMS5h/ShqL9eQ8UrAZBsTr/5X5P/PugVYl3uE/Vnp5X/nTn0wF4Z9ddryHglAJLMsfz73GfIi8Ta/G7Un51WnpY59MDuG/XXa+hYAmBgc3vZ/5pcFD4SeKr+JurPTyt3yBx6YP3Z/3jUX7Oh4+0AGMhcf/Pv36s9ecDrxPr8q6g/P618NXPoJPeIjXuh+toNHa8EwA7N9Tf/PmcPeJ1Yr8dH/flp5dWZQyd6XNRfu4x4JQC2ac7lv2fA68T6vSfqz1ArD84cOln/twvV1y8jlgDYIuXPWB3R5bKoP0er+VGXGyTOvQ6WAFg45c+YPSDqz1Er78sceo0sAbBQyp+x+72oP0utPClz6DWzBMDCKH+m4ItRf55auXXm0AUsAbAQyp8puG3Un6dWvpQ5dCFLAMyc8mcqnhz1Z6qVV2QOXcwSADOl/JmS/oubqs9VK7+eOfQIWAJgZpQ/U9L/i13/r3bVZ2s1/b8kHpk491hYAmAmlD9T85CoP1ut/Enm0CNjCYCJU/5M0Wui/ny18rjMoUfIEgATpfyZol1dvh71Z6yVWyXOPVaWAJgY5c9U3THqz1grf5059MhZAmAilD9T9vSoP2etvCRz6AmwBMDIKX+m7iNRf9ZauXfm0BNhCYCRUv5M3dFdroj687aaH3TZnTj3lFgCYGSUP3PQn+Pq89bKuzKHniBLAIyE8mcu3hj1Z66Vx2QOPVGWACim/JmLQ7p8M+rPXSvHJc49ZZYAKKL8mZO7RP25a+VTmUPPgCUA1kz5Mzd7o/7stfKCxJnnwhIAa6L8maMLov78tXKPzKFnxBIAyZQ/c3RMbPygrT6Dq7mky+GJc8+NJQCSKH/m6hFRfwZb+cPMoWfKEgADU/7M2Zuj/hy28puJM8+ZJQAGovyZs0O7fDfqz+Jqrupys8S5584SADuk/Jm7u0f9WWzlY5lDL4QlALZJ+bMEz43689jKszOHXhBLAGyR8mcpPhH1Z7KVu2UOvTCWANgk5c9S9O+x9++1V5/L1XwvNv42geFYAuAglD9L8sioP5etvClz6AWzBMB+KH+W5u1RfzZbeXjm0AtnCYAVyp+l6T9hr/+kverzuZr+Prxx4txYAuCnlD9L9GtRfz5b+fPMofkpSwCLp/xZqhdG/Rlt5VmZQ3MtlgAWS/mzZJ+O+nPayp0zh+ZnWAJYHOXPkt0y6s9pKxd32ZU4N22WABZD+bN0j436s9rK6zOH5oAsAcye8oeIP47689rKQzOH5qAsAcyW8oeI3V0ujfozu5oruhyVODebYwlgdvry73/AVB/CjOwZ8Doxf/eN+jPbyocSZ2ZrLAHMhvKHf/bSqD+3rTwtc2i2zBLA5Cl/uLbPR/3ZbeUOmUOzLZYAJkv5w7UdH/Vnt5WvhX//GytLAJOj/OFnPSHqz28rr84cmh2zBDAZyh/a3hv1Z7iVB2cOzSAsAYye8oe2I7pcFvXneDU/6nKDxLkZjiWA0VL+sH8PjPpz3Mr7ModmcJYARkf5w4G9MurPcitPyhyaFJYARkP5w8F9OerPcyu3zhyaNJYAyil/OLjbRv15buVLmUOTzhJAGeUPm/PkqD/Trbw8c2jWwhLA2il/2Lz3R/25buX+mUOzNpYA1kb5w+b1/2LX/6td9dleTf8viUcmzs16WQJIp/xhax4S9We7lXMzh6aEJYA0yh+27jVRf75bOTtzaMpYAhic8oet679g5+tRf8ZbuVXi3NSyBDAY5Q/bc8eoP+OtfDZzaEbBEsCOKX/YvqdH/Tlv5cWZQzMalgC2TfnDznwk6s96K/fKHJpRsQSwZcofduboGOc99IMuuxPnZnwsAWya8oed6++j6vPeyrsyh2a0LAEclPKHYbwx6s98K4/JHJpRswSwX8ofhnFIl29G/blv5bjEuRk/SwA/Q/nDcO4S9ee+lU9lDs1kWAL4KeUPw9ob9We/lRckzsy0WAJQ/pDggqg//63cI3NoJscSsGDKH4Z3TGz8AKq+B1ZzSZfDE+dmmiwBC6T8IccZUX8PtPKHmUMzaZaABVH+kOctUX8ftPKbiTMzfZaABVD+kOfQLt+N+nthNVd1uVni3MyDJWDGlD/kOinq74VWPpY5NLNiCZgh5Q/5nhf190Mrz84cmtmxBMyI8of1uCjq74lW7pY5NLNkCZgB5Q/r0b/H3r/XXn1frOY7sfG3CbBVloAJU/6wPo+K+vuilTdlDs3sWQImSPnDer0j6u+NVh6eOTSLYAmYEOUP69V/wl7/SXvV98dqruxy48S5WQ5LwAQof1i/X4v6+6OVj2YOzeJYAkZM+UONF0b9PdLKMzOHZpEsASOk/KHOp6P+PmnlTplDs1iWgBFR/lDnllF/n7RycZddiXOzbJaAEVD+UOuxUX+vtPK6zKEhLAGllD/U++Oov19aOS1zaPgJS0AB5Q/1dne5NOrvmdX0PxuOSpwb9mUJWCPlD+Nw36i/Z1r5YObQ0GAJWAPlD+Px0qi/b1p5aubQsB+WgETKH8bl81F/77Ry+8yh4QAsAQmUP4zL8VF/77TytfDvf9SyBAxI+cP4PCHq759WXp05NGySJWAAyh/G6b1Rfw+18uDMoWELLAE7oPxhnK7X5YdRfx+t5kddbpA4N2yVJWAblD+M1wOj/j5q5X2ZQ8M2WQK2QPnDuL0y6u+lVp6UOTTsgCVgE5Q/jN+Xo/5+auXWmUPDDlkCDkD5w/jdLurvp1a+lDk0DMQS0KD8YRqeEvX3VCsvzxwaBmQJ2Ifyh+n4QNTfV63cP3NoGJglIJQ/TMkNY+Nf7arvrdVc1uXIxLkhw6KXAOUP03Jq1N9brZybOTQkWuQSoPxhel4b9fdXK2dnDg3JFrUEKH+Ynv4Ldr4e9fdYK7dKnBvWYRFLgPKHaTox6u+xVj6bOTSs0eyXgCtH8GAysvdnn0uYladH/X3Wyksyh4Y12xv191RG+u4vfxAZ2dN6FmFmzo/6e62Ve2UODQXm+kpA+QMYOnvbzx/Myo1inG/d/UOX6yTODVX2Rv39NXTKH8CQ2bO/Zw5mpv/bner7rZV3Zg4Nxeb2SkD5Axgqew7wpMHcvDHq77lWHp05NIzAnJaA8gcwRPYc8OmCeTmkyzej/r5r5bjEuWEs5rIElD+AnWbPQZ4omJu7RP1918onM4eGkZnDElD+AHaSPQd9imB+9kb9vdfK8xNnhjGa+hJQ/gC2mz2beHJgji6I+vuvlZMzh4aRmvISUP4AtpNvdzl2M88MzMxNY+NTvKrvwdX8fZfDEueGseq7qO+k6ntwMQtAn891ufkmnhyYkzOi/t5r5a2ZQ8NI9Qv5p6P+/ttuyh/ATmIJYGneEvX3XStnZg4NIzT18u9T/gB2GksAS3Fol+9G/T23mqu6/IvEuWFs5lD+fcofwBCxBLAEJ0X9vdbKxzKHhpGZS/n3KX8AQ8USwNw9L+rvs1aenTk0jMicyr9P+QMYMv33kPvvAObqoqi/x1q5W+bQMBJ9t/QdU32/DZnyBzB0vBLAHN0sNt5rr76/VvOd2PjbBJizuf3mf03KH0BGLAHMzaOi/r5q5U2ZQ8MIzLX8+8RnRvAgMuLtAObkHVF/T7Xy8MyhodgcX/a/Jn33X73d/NUIHkxGvBLAHBze5ZKov59Wc2WXGyfODZXm/Jt/340323dQSwCM0ylRfx+18tHMoaHQYsp/34EtATA+L4r6e6iVZ2YODUUWV/77Dm4JgHEZ69/p3ClzaCiw2PLf9wJYAmAcjov6+6aVi7vsSpwb1m3x5b/vhbAEQL2zov6eaeV1mUPDmin/xgWxBECtd0f9/dLKaZlDwxop/wNcGEsA1Njd5dKov1dWc0WXoxLnhnVR/pu4QJYAWL/7Rf090soHM4eGNVH+W7hQlgBYr5dF/f3RylMzh4Y1UP5bZAmA9fp81N8brdw+c2hIpvy3yRIA63F81N8TrXw1c2hIpvx3yBIA+Z4Q9fdDK6/KHBoSKf+BWAIg13uj/l5o5UGZQ0MS5T8wSwDkuF6XH0b9fbCay7tcP3FuyKD8k1gCYHgPjPrz38p5mUNDAuWfzBIAw3pl1J/9Vp6YOTQMTPmviSUAhvPlqD/3rZyQOTQMSPmvmSUAdu52UX/eW/li5tAwIOVfxBIAO/OUqD/rrbw8c2gYiPIvZgmA7ftA1J/zVu6fOTQMQPmPhCUAtu6GXX4U9Wd8NZd1OTJxbtgp5T8ylgDYmlOj/my3cm7m0LBDyn+kLAGwea+N+nPdytmZQ8MOKP+RswTAwe3q8vWoP9Ot3Cpxbtgu5T8RlgA4sBOj/iy38tnMoWGblP/EWAJg/54R9ee4lRdnDg3boPwnyhIAbedH/Rlu5V6ZQ8MWKf+JswTAtR3d5YqoP7+rubTL7sS5YSuU/0xYAuCfnR7157aVd2YODVug/GfGEgAbzon6M9vKozOHhk1S/jNlCWDpDunyrag/r60clzg3bIbynzlLAEt216g/p618MnNo2ATlvxCWAJZqb9Sf0VaenzgzHIzyXxhLAEt0YdSfz1ZOzhwaDkD5L5QlgCU5psuPo/5srub7XQ5LnBv2R/kvnCWApTgj6s9kK2/NHBr2Q/lzNUsAS/CWqD+PrZyZOTQ0KH+uxRLAnB3a5btRfxZX078lcWzi3LBK+dNkCWCuTor6M9jKhZlDwwrlzwFZApij50X9+Wtlb+LMsC/lz6ZYApibi6L+7LVy18yh4SeUP1tiCWAu+h8OV0X9uVvNd2Ljo4khk/JnWywBzMGjov68tXJO5tAQyp8dsgQwde+I+rPWyumZQ7N4yp9BWAKYqsO7XBL152w1V3a5ceLcLJvyZ1CWAKbolKg/X618NHNoFk35k8ISwNS8KOrPVivPzByaxVL+pLIEMCWfifpz1cqdModmkZQ/a2EJYAqOi/rz1MrFXXYlzs3yKH/WyhLA2J0V9WeplddlDs3iKH9KWAIYs3dH/Tlq5bTMoVkU5U8pSwBjtLvLpVF/hlZzRZejEudmOZQ/o2AJYGzuF/Vnp5UPZg7NYih/RsUSwJi8LOrPTStPzRyaRVD+jJIlgLH4QtSfmVZunzk0s6f8GTVLANVOiPqz0spXM4dm9pQ/k2AJoNITo/6ctPKqzKGZNeXPpFgCqHJe1J+RVh6UOTSzpfyZJEsA63a9Lj+M+vOxmsu7XD9xbuZJ+TNplgDWqf8tu/pctHJe5tDMkvJnFiwBrEv/Pnv1mWjliZlDMzvKn1mxBLAOX4n689DKCYkzMy/Kn1myBJDpdlF/Dlr5YubQzIryZ9YsAWR5StSfgVZeljk0s6H8WQRLABk+EPXPfyv3yxyaWVD+LIolgCHdsMuPov65X81lXY5InJvpU/4skiWAoZwa9c95K+/OHJrJU/4smiWAIbw26p/vVs7KHJpJU/4QlgB2ZleXr0f9c93K8YlzM13KH/ZhCWC7Toz657iVz2QOzWQpf2iwBLAdz4j657eVF2UOzSQpfzgASwBbdX7UP7etnJI5NJOj/GETLAFs1tFdroj653U1l3bZnTg306L8YQssAWzG6VH/fLbyzsyhmRTlD9tgCeBgzon657KVR2cOzWQof9gBSwD7c0iXb0X987iaq7rcInFupkH5wwAsAbTcNeqfv1Y+mTk0k6D8YUCWAFbtjfrnrpXnJ87M+Cl/SGAJYF8XRv3z1srJmUMzasofElkC6B3T5cdR/5yt5vtdDkucm/FS/rAGlgDOjPrnqpW3Zg7NaCl/WCNLwLL1RVv9PLVyZubQjJLyhwKWgGU6tMv3ov45Wk3/lsSxiXMzPsofClkClqf/I7vq56aVCzOHZnSUP4yAJWBZ+n+zq35eWtmbODPjovxhRCwBy9F/0E71c9LKXTOHZjSUP4yQJWD++mvQf9Ru9fOxmu/ExkcTM2/KH0bMEjBv/ZfsVD8PrZyTOTSjoPxhAiwB89V/zW71c9DK6ZlDU075w4RYAubn8C6XRP31X82VXW6cODe1lD9MkCVgXk6J+uveyvmZQ1NK+cOEWQLm40VRf81beUbm0JRR/jADloB5+EzUX+9WTswcmhLKH2bEEjBtx0X9dW7lG112Jc7N+il/mCFLwHSdFfXXuJXXZg7N2il/mDFLwDS9O+qvbyunZg7NWil/WABLwLRct8s/Rv21Xc0/dfm5xLlZH+UPC2IJmI77Rf01beUDmUOzNsofFsgSMA0vi/rr2cpTModmLZQ/LJglYPy+EPXXspXbZQ5NOuUPWAJG7ISov4atfDVzaNIpf+Cnju3y2ai/eTPSz3WT4S7VWj0h6q9fK6/KHJpU/b0w53v92OEuFSzHnF8J+EiX3cNdqrU5L+qvXSsPyhyaNP0XSvV/vFl9fjLiN3/YoTm/ErBnwOu0DtfrcnnUX7fVXP6Tx8b0PDvqz09G/OYPA5nrEvCDmNYPiQdG/TVr5bzMoUnTn/0xfp7ETqP8YWBzfTvgsUNepGT9++zV16uVJ2YOTZqzo/7sDB0v+0OSOb4S8I5Br1Cur0T99WrlhMSZyfPOqD87Q8Zv/pBsbq8EXDDs5Ulz+6i/Vq18MXNoUn0s6s/PUPGbP6zJnF4J+OTA1yZL/yl71deqlZdnDk2qT0X9+RkifvOHNZvLEvCeoS9Mkg9G/bVq5X6ZQ5PqvVF/fnYa5Q9F5vB2wO8MflWGd8PY+Ka96mu1msu6HJE4N7n2Rv0Z2km87A/FpvxKwFUxjc+vPzXqr1Ur52YOTbr+70r6e6D6HG0nfvOHkZjqKwFvzrgYCV4X9deqlbMyh2Yt3hr152ir8Zs/jMzUXgn4RpefT7kSw9rV5e+i/nq18gt5Y7Mmt+hycdSfpc3Gb/4wUlNZAvpPP7tL0jUY2olRf73294OYebhrTOMTAZU/jNzY3w7of9Cdkjb98J4Z9deslRdlDs3andzl0qg/V/uLl/1hIsa6BEyt/Hsfjfrr1srUriMHN9YlQPnDxIxtCZhi+R/d5cqov3ar6Utiil+lzMGNbQlQ/jBRY1kCplj+vdOj/tq1MqXvT2DrxrIEKH+YuOolYKrl3zsn6n8It/KozKEZheolQPnDTFQtAVMu/0O6fCvqy341/QfHTOHfJ9m5qiVA+cPMrHsJmHL59/p/zaou+1Yuyhya0Vn3EqD8YabWtQRMvfx7e6O+7Ft5XuLMjNO6lgDlDzOXvQTMofx7F0Z92bdyUubQjFb2EqD8YSGyloC5lP8xXX4c9WW/mu93OSxxbsYtawlQ/rAwQy8Bcyn/3plRX/atvCVzaCZh6CVA+cNCDbUEzKn8e2P9hrYzModmMoZaApQ/LNxOl4C5lf+hXb4X9WW/mv4tCV/EwjV2ugQof+Bq210C5lb+vf4Ha3XZt3Jh5tBM0naXAOUPXMuNunwwNv9D5Bux8b/yc/P8qC/7VvYmzsx09ffgxbH5c3R+bCz8ANdynS57uvwg9v8DpP8kuv6P0eb6aXSfjPqyb2WOyxbDuEVs/N1Kf2/u7/z09/TvxMY9DrBf/W8Ivx0bXzpzQZe/7PKnsbEc3K7wcWXrl5oD/RCtyrdj46OJ4UBuHxuvFPX3an/P9vdufw/397Lf+gEO4NFRX/atnJM5NAAs3TujvuxbOT1zaABYssO7XBL1Zb+aK7vcOHFuAFi0e0V92bdyfubQALB0L476sm/lGZlDA8DSfTbqy76VEzOHBoAl+8WoL/pW+g9b2pU4NwAs2tlRX/atvDZzaABYunOjvuxbOTVzaABYsuvGxpcaVZf9av6py88lzg0Ai3b/qC/7Vj6QOTQALN3Lo77sW3lK5tAAsHRfiPqyb2XOX7oEAKVOiPqib+WrmUMDwNI9MerLvpVXZg4NAEt3XtSXfSsPzBwaAJbsel1+GPVlv5rLu1w/cW4AWLQHRX3Zt/LezKEBYOleFfVl38oTMocGgKX7StSXfSu/lDgzACza7aO+6Fv5YubQALB0T436sm/lpZlDA8DSfTDqy76V+2YODQBLdsPY+Ka96rJfzWVdjkicGwAW7bSoL/tW3p05NAAs3euivuxbOStzaABYsl1d/i7qy76V4xPnBoBFu1PUF30rn8kcGgCW7plRX/atvChzaABYuo9Gfdm3ckrm0ACwZDfqcmXUl/1q/qHLdRLnBoBFe3jUl30r78gcGgCW7k1RX/atPCpzaABYskO6fCvqy341V3X5+cS5AWDR7hb1Zd/KRZlDA8DSPTvqy76V52UODQBLd0HUl30rJ2UODQBLdmSXK6K+7Ffz/S6HJc4NAIt2l6gv+1bemjk0ACzdPaO+7Fs5I3FmAFi8X4n6sl/Nj7vcNHNoAFi63V0uj/rS3zcXpE4MAFztXVFf+vtmb+q0AMDV7h4bn7pXXfzX5K654wIA1/j9qC/+Pt+OjY8mBgDW4HpdPhz1C8A52YMCANfWLwFvi9oF4GHpUwIATQ/s8pFYf/l/r8sRa5gPADiAE7o8scufdn9c6AEAAADWSURBVPnHyF8AnruesQCAzeo/L+CULv+1yydi+P8a+NvY+F4CAGDEbtLlobHx3wNfjZ2Vf/+X/7db78MHAHZqV5df7vLkLud1uSw2X/4XdbnN+h8yADC0/g/57tPlxV3+MtrF/+UuT+pynaLHCAAkO6bLA7o8Jja+5e8OXQ4tfUQAAAAAAAAAAAAAAAAAAAAAAAAAAAAAAAAAAAAAAAAAAAAAAAAAAAAAAAAAAAAAAAAAAAAAAAAAAAAAAAAAAAAAAAAAAAAAAAAAAAAAAAAAAAAATNv/B1S567Bm7OKFAAAAAElFTkSuQmCC;" vertex="1" parent="1">
          <mxGeometry x="165" y="87" width="24" height="24" as="geometry" />
        </mxCell>
        <mxCell id="80G_cJ_iZyhu6avmu4dn-7" value="" style="shape=image;verticalLabelPosition=bottom;labelBackgroundColor=default;verticalAlign=top;aspect=fixed;imageAspect=0;image=data:image/png,iVBORw0KGgoAAAANSUhEUgAAAMgAAADICAYAAACtWK6eAAAABHNCSVQICAgIfAhkiAAAAAlwSFlzAAALEwAACxMBAJqcGAAAFzhJREFUeJztnWm0HVWVgL+MLwOEhACRMY+0YVDmhm6QoWWhzDPYQoOCODC0igOiINiPqVvtJWoDgtigzAItQzMjICDQyBgGGYSERySMIQRIAklIbv/YKXPzuGdX1bnnVNW9tb+1zlpZqfv23lW39q065+wBDMMwDMMwDMMwDMMwDMMwDMMwDMMwDMMwDMMwDMMwDMMwDMMwjE5iUNkGdDGjgE8CYyLreRu4E3gvsh7DCMZmwAygUdB4CdikkDMzjDbpAfopzjmSMRUYFv/0DKM9dqN450jGjgWcX60YXLYBXch6Jepev0TdXYk5SHh6a6q7KzEHCU9vTXV3JUPLNqAL6XX8/1zg0EA6fgsMyaHbMCrDO7SeQE8JqGO6Q8dbAXUY2CtWaMYDyzuOPR9Qz18d/z8WWCGgntpjDhKWicqx5wLqcTkI2GtWUMxBwtKrHCviCZJmg5ETc5Cw9CrH7AnSgZiDhKVXOWZPkA7EHCQsvY7/nwu8HFCPOUhBdNM+yARgB2AecBswpwQbeh3/H/LpAdV0kDEsjQW7BXi3JDuMFmzHsvsPrwO7lGDH27Ten/ifwHoGAfMdusrYC9kdmNlkw6vAliXYYbRgG+TXauCNsgj4AcUlhY1rYUMy/iOCvqmKvqL2QgYDJwOLW9jwDrBVQXYYDlzO0TyuRzbQYrOpYsMXI+i7U9G3cQR9A1kRuEmxwZykZLI4RzKeBzaKbM8+iv7tIui7UNG3VwR9zWwKTFP0m5OUTB7nSMZc4KCINn1T0b1aBH2nKfqOjqAv4RBkISTPtTcnKRAf52geZxAnNfXnDn2xVtOOcOhrAD+NoG84cLai05ykArTrHMm4l/C/6tc6dIWM4m1GS+29OrCuNYD7FX3mJBUgi3O8BbyZ8plkvELYucFjDj2hl3gTNnLoawCPBtSzPfCaoisZ04FzMnzOnCQCWZ1jc2Sj7OGUzyZjIfCNQDbOduiIscQL+rJyqL2QY4APFD3JuBVYacnf9GX4vDlJQPI4R0IP8KuUv2kelwGjPWxbF7khnlJkx1jiTZij6H0M+A6wqofc5YArFdnJWAycyodDlvoy/K05SQB8nKOZw5CKg1mc5AlgcgabxgFfBR7MKDfGEm/C0xn0fwDcCOxHtsWJddEdPhmzkHmQi74MMsxJ2qBd50jYBH3XuXnMBvZ0yNkIOJ/8S5wxlngTbs1pyyvAScBHHPL2xZ0y3DweAdbOYF9fBlnmJB6Eco6EscB1KfKaXxtOY+lrw2Y5/nbgiF0v91xPu95f8reTlsgZAvwo49+eB4zIYWNfBpnmJDkI7RwJg4DvIzFaWW6EW4CLaB1nlHVcntPGvGyEPg9JGwsRR7ktw2ffw38+1ZdBvjlJBmI5RzOfBt5I0dHuWAhcTPzK7iCVHM9F8k1inc80JLykHfoy6DEnUSjCORLWBP6UoivveBdZDftnyqksMgj4B+DHSL5IqPO6HlmYCEFfBn3mJC0o0jkShgO/SNGZNhYBNwMHIv1AqsJgJHnsUtx5I1nO7QTCpwv0ZdBtTtLE1hTvHM0cjAQy5rl5ZgI/pDPSW1dBbvQ8r2BvIK+isejLYMM7yL1Ra8Yg2X9lOUfChsBfUuxoIGHzRwAjI9sTg+HIJPs59HO8H3kFjU1fih0NZNl9fAG2VJbPUL5zJIwBrnLY8QwSKt+qHm6nMQT4PK33hs5CHKko+lrYMHDsX6A9lWN/9IvzTyXY9F2WvnL1IwWnu8ExBjIM+DJwA7LheEAJNgwnvRtXGbUFKsPy6Euul5VkVw+yA25NTuOSFi/3Cp35OhuUXdA3475dnmlGRA5Hd45FxF0o6Cj+DfeF+gBZsjS6h61IX34+vjTrKsggZENKW3acWJp1RkhWJX3J+Roq8npbCSOWMBZ4CPg7x/FHkXXx2AGAsRmBhIesDayF7FOMR/JRkhWkBchCwZtINt90JNzjWeSXt1MZhpQr+oTymeeQlct3ijCo09gYPZz8wvJM82YtZP/hfCTPIkuGnmssBJ4E/htZXVujuNMIQlrkwhzg46VZ1yEcjH4Rv16eaZnZADgF+DP+zpB1PI7sJ1S9BfRhpJ/LZ0uzrsM4E/1XNGaWni+jkH2FrJmGMcb9yI2YJ1+jCLZAclA022OUKupahiGleVwX8zWq83oxDqlP21y8uezxOlKXuAr9ClchPbr4Lrqr00AhrIZUCXdd1AeQDb2yGAmciLuiexXGLOB7lHedhiI3v2bjDKR1heHBdsgrlevinl+SXfvhbsVcxTEN2CPKldBxVZtMxgIsrL1ttJq3DeDIAm2ZgFQt9L1RFyCJWmcDRwE7I6s2E5B5w2Ak7mskUlhhQ6RyyNHIytUUsqcMtxqXs7R+VWw+l8GerxZkS9dzGfpNV0TewG6kh+a3GtORCeiOhIkrGoNUbz8Xv9Thl4kfwrEZ6dVfLopsQ60YjdStcl3sV4hXXmcwUuUkT/GG94ELgG2Juxk7FNgV2XnOs7+yCJk/xbBtJdIjdKdgQYjBmYw+Ib6P8LkMo3EXpW413kb2P1YJbEcWJiEbcXlSbK8k7JLwEOD2FJ1vsbTckBGYvdB/yX8ZUNd4su9pLAB+gnRdKpuJwCVkd5L7CNeB6ycpuhajV2M0AqA1jmkg2XLtMgH9la553IWU66wa25CthGgDiXNbuU19W2bQ09emDiMDg5Gibq4v4bY25Y8nm3O8h4S9VCngcyA9wH+Sbf70KO09SY5JkX8D1b5WXcV5uL+I69uQO5psr1VF9DwMyU5k65tyL/5zkgNTZJ/nb76Rh8noKzaHecodTLYJ+W0U0zU3NL1kC568Er9f+hHAi4rcRci+jhEZ7enxHP4xPacqcpNxCXH6GxbFWOBu0s/zBE/5X0yR+7s2bDcysBr6MqZvF9vdSH9PP48PN4rpREYBv0c/10XApzxkD0VvNbEYSRYzIqH9yj+L3w08gfQd8os8ZVeVUcAf0c95Bn5F29KeIme3abvhYBh6dO+hnnLTYqtuoTtDsceSvgzsU3ZpOPCSInMOxVS9rx1aFcaX8Jsb7KfITJ5KVcipiMUkJCReuwY+G3vHpsj8SruGGx/mZtwX/DgPeSPRQ9bnUY/86LS6ZM+TP4RnHHpB8PtCGG4sZXXcYd7v4xfCfYJDXjKOatvqzuF09GtxjIfMtKqJruo1hgffRZ9A52Uc7r7mDSTgrk70IAW6XddjJlImNg9bKPIaWGG4oGihH5/0kHeyIm8+8NG2Le48tkO/ob/vIfNJRd5j7Zscn6rExqyE7PS2GhORxvatmL7kM40cukYt+TvXEuaPkSdWHbkMd5X315DvIk/humOR7rku5iC77/2OMTOHrigU5SC+DpDGj5CiBHn4MpKN14rZSMXD2Z72dDqTkFct14rgF4Df5JA3EbnRfXkX3YHebEN24fQAuyMTujORoMEnSW+v1s7waa6jBSP2ecjrNrTe6/d6yItZJ+wd5PX7OuAMpBPArhTbBCgTm1N8lY+XPOzcQJE3j+IKGlSZddALQ6yTU96JiqxY4wVgk5x2RmMUcXt0u8Y5Hraeosj7tYe8buUG3NcpbyDjx8iXzx9qTKciFSZ3pfiTf4f8v2Sgh3trFcfrxt64r9MjHvL6FHkxh0/A5TKEiDEqIq5mNlK+8q/I5OwspCttHtZCfs1a0Y/t7jZzI1JcYVyLY5sgNbtezSGvD7gCqd6/BtJFd82mf69CnAWjtvN2qhCENw+58aez1AkGjjkB9Gi1oK4KIL+bWIAkjx3a4tgg5Jf54pwyn1oyWtGDREsMdJzmUUo76NgOsgCZTLtu/L8iwXJFoBWXu6kgGzqJG3FHSG9NfgfRmI+UR52mfGYkrR2n8oGPB+B+B6xSj2tXaPd8KjKZqxgr4p5cTynRroFoc5C2779uSgLSGIF7Uv8oEvBoLMss4GnHsfWpxut5dOriIOshVf9a8WiRhnQYDzv+fzhSPKPrqYuDrK0ce6IwKzqPx5VjtSgfWhcHWUs5pk0M685U5djEwqwokbo4iFZMenphVnQeLyrH2i1V2hHUxUG0NfTSQ6orjHZtStmXKJq6OMho5Zg1rHejhf1r17RrqIuDaOHPCwqzovPQkqPKbKBaGHVxEI2qZFVWkdpfm7o4iPaUqFxyTYXQnhJ5Um87lro4yFzlmFX5c6NFw2rXtGuoi4NoucuWRehGuzYdlQ/uS10c5DXlmLaJWHd6lWOvF2VEmdTFQbTNwFqETHiiVT/UNhG7hro4iBZOYl2P3Ght5moRolMXB3kWadvWis2KNKTD+HvH/89Hilp3PXVxkPmIk7RiEyRbzViWlXB3g3oK9w9O0SyOKTx20stlSPXDFxxDmzyH5n5atzMYBmwL3FqgLZ2AVhHk/wqyYRASaDowzXZNZHFlTSRzMBqxHWQoMgl2TYTnIhVFXA4UMk7qHqQ9WCt2xRxkILsqx+4JpGNFWt/8zcUbSt3ILTttcjTyq+5qVDMLmQw2O8004A7yP+JvU47tC3yTyL9GHUQPsKfjWAP9WrrYDOm5MpGlDjDKy7rsVOL73IXiC4I9gF806eOKzG095HUrWmu6Bz3kbYiUdyr6PtnBw9bgjEDK9xR98j79KvoUeRd6yOtWQre7+7UiL9aYRoXi7DZClv2KvAAPedi5viLvfaQldN1ZH72Wbt7WaYNJb7MdejxLoP6SIcOZhwHbI0uDvQNGqxKW7dIAViX/Stj9wD86jp1G/uLM3cb5SB+QVvwR6USVh+2Au9qyyM0slvYKSfqIPA38gUDL0EXF+49BJme9jrGip9zDcTfDcXEYcJ7j2LtIBZRaBOK1YDKyx+FavPk8+XtCngF81dOeN1m2Yc7AZjrvesrNTFUSYpbD7Ty9uPOf7yD/RGwEEpvlKjrwM2RFq478DlnRa8XLyI9HngzMocAM3EUzZqI7QIiazLXA1QxyEX7RuD9wyGsgN4BrB7mb2QH9vf5YD5l7KPIeaN9kI0HrUnSSh7wVkPdXl8y7qc7TtQhGoi+yvIbfsvo1isyvtW218Tcm477Qr+JXQOB7iswG8I22re4czkC/Fkd7yFwDmSi7ntK1qKtVJH/C/QV+yUNeD7Izry37VqbPXUT2RHcOreutxr8rMq0fSwSOwn3Bp+L3JWrvyA1ks8l3ha0TmIzUvtKuwY4eckchK1Aumbu1a7jxYVZAghtdF/0oT7mXKzIbyJp6ZXZkAzIeaWOnnbtvdMHXFJnTcVfaN9rkV7gv/OuIE+VlJdK79F5Od32pyyEh69o5T8evx98wZLnWJff4Nm03FD6OHgbxX55yP43eGzz5Ne0GJ1kOeSpq5/oB+XfME76iyJ1HTWr6lom2dLgI2NJTbpaG91fQ2SU3x5P+5GgA3/GU34M8eVxyz2zDdiMjG6M/RZ7G7yYeBFypyE3G3XTmr+Bk0uccDeCSNnT8qyJ3PlZiqTB+g/4lf8ZT7gikX3raTdSPu6BBFdmT9NWqBnAn7S1I3KHItqdHQQwBbkf/otvZpR2L9C1Mu5nmI68iVS58MZL0TcBkPEj7ZVjvUeTfTLWvVdfwQ9K/7HY3+FYmm5M0kHf6DdrUF4MdyJ6j8yBh9nu+kKLnlAA6DIV9Sf+yTwukaxzZXrcayKrPmeit3opiMhKVm8Xu5LUqZAFvbSl+Me5cd6NN1kWqnGhf9o2EfYyPINvEPRlzgB8Dqwe0ISvrIclOC3PYewnhN0F7kKQ0l87ZwEcD66w9yyGJPNqX/Tx+G1tpDEKyDNP2SZrHAuC3SG2pmO/dPUiBhZvRV/ZaPfF8l3KzsDoSROrS/zjxK5rUirRf8TnEnwd8Ckn+yXoTJuNV4Gzk1WL5AHasBByAbFxmWZkaOKbjvwmYh22RHwqXHZcWYEMtOIb0L913WTcv45FqkXlvymQsAqYgr0LfAvYGNkVqRI1BnggjkJCZichS8n5IstLFyB6Pr+4GcAFxnrIutJisBn5h9EYT2+POKUjGj0qwazeKr+LSzngGv6jcEFyg2LUQ2KYkuzqeNZBMNu2Lv5Xy4qOGI0+3mSk2ljleR36lfVIBQjECeBi3ja8g1WmMHAxHXwlpUJ1cjeWRInbapLToMQN5LatKL/O1gDdw23sP5Tpxx3E2+g0wF4nJqhI9wKHAvZTnGHcDn6Oa+Stpr8u+kdi14xDSb4R/Kc26bKyDLA0/Qr7l17xjMbILfhz5Kx6WwbfRz+eg8kzrDDYF3kO/iKeXZp0fHwEORp6KU5AYLl+HeB9xurOAA6nGzn1eLkV/M9DavhVOlUrbrIhM5nqVz/yBpclNncpQJBxkErKUuzKyfDyapWH685Gb5U1kov0iMud6nup0dvJlFBLC43pFngpsjuzxGEsYDNyE/uv5IlYqpluYhF7U4Tqq9eNdOiejO8d7dFb+hZHOTujhOyeWZ1q12J30iewhpVlnxOQ43N/5ImDn8kyrBsuTvtF2RmnW1YMhyLyvrOBBLc7udSRQtbbsg+4cUymnj+LhyETyduAIqrmv0C5DkAokyQbnPKQca9HsjH4P1Dp/5EDSlzb7CrRnFBIUONCGfqRDbtlNT0OxN/BnWl/vqwmbQKWxDdLjwxzEwcrA21TDSSYDT6TY8QJwJJLr3Ynshl7jOBl/QRpvxiSLc8zA8kbYmvRMwdhOsg/ZHDUZbyD51atFtCkUw5DIg6w59smYi2xwxiCLc8wGtoikv+PYinKcZAiSIpvnxmkeC5FK5btSvaqLk4BTkWhZ3/NrILv2IedgWZ3D1UeythTtJBNIL8GZZ7wK/By5Acoqb7Mm8HUkOjZkDNj9S2S3izlHmxTlJJ/AL30263gNyRr8WJt2ZmEM0mXrsYjn00BeKz/Vhp3mHIGI7SRHo+dKJ+NGJMAwy2ddYw5xJ7vDyD+3aB4fIF2Cb8n4+UVI7kveMBBzjsDEcJLlkEojaTIXL5Gb3AS9wDmkRxm7xi9y2JiXtD0E7Ua/gqVPuMHIfCXra9n/kj233ZwjEiGdZD3c6/7NYxbu7kcrI/FBL2WQ0zxuzHrCHhyZ05Z3kQJ3kx3ystbwbSCbuGkVLM05IhPCSfbPKGMKsvKTxhDkRrqWbEXansh2ql5kXYG7B+njmCVsI8t+UDLmIVmUrTDnKAhfJxkK/CTD3zWAi/Db/FsFmdM8pMiOmdegxTFNQUJH1vaQO5p85Y1+ybItJ8w5Ciavk6yK5GenfX4B0tMiBNqrSYiCca1wOeZbgeQfTfZSpg8iCWDmHCWR1UnOJdvm2AxkuTcUUxRdsZZ7XUlHjwbUsS3ZNxtnYs5RKlmdJG3chWwUhkRrDbdTYF0g1Rdd+q4OrGtV9N4fWYc5RwG06ySnEycq92eKzi9F0LeJou+nEfQNQ0rzmHN0AD5OMgf4bESbvqnoPimCPi2XJmbN24PQ+9Wbc1SEPE7yLNJCOibaDXt+BH3fUvTtFUFfMxuRvTaxOUeJZHGSaygmAWhTxYbfR9Cn9R4sourkWKT6iDlHxXE5ySLgeIorHzOuhQ3JeCaCvusVfStE0NeKQUh0QavqJOYcFWJLll2KfJVyyv279kLmRtDlCp0JtQeSh11YthL/LOQ7MSrEaCQEZA/KS9PUQs5DV6J3TZRD7oHkYRQSx7Yf1ai6b1SQaylmXjBB0XNVQD21xxq7h+VF5ViIjLwELb6qP6Ce2mMOEpZ+5Zg5SAdiDhKWfuVYSAfRwvI1G4ycmIOEpV85Zk+QDsQcJCz9yjFzEMPAXYBuakAd0xw6ZgXUYdA9tWarxIu0rmSyBnBAIB2up1F/IPmGEY20+KSYw/ZAAmNzkPD011R3V2IOEp7+muruSsxBwvN0TXUbRiaG415lijn+gi26GB3CxshqVlHO8QKwQSFnVjOsF3U8epCSOVlr2PryFlJxZH5kPYZhGIZhGIZhGIZhGIZhGIZhGIZhGIZhGIZhGIZhGIZhGIZhGIZRef4ftIrbWluRHasAAAAASUVORK5CYII=;" vertex="1" parent="1">
          <mxGeometry x="305" y="85" width="30" height="30" as="geometry" />
        </mxCell>
        <mxCell id="80G_cJ_iZyhu6avmu4dn-8" value="" style="shape=image;verticalLabelPosition=bottom;labelBackgroundColor=default;verticalAlign=top;aspect=fixed;imageAspect=0;image=data:image/jpeg,/9j/4AAQSkZJRgABAQACWAJYAAD/2wBDAAgGBgcGBQgHBwcJCQgKDBQNDAsLDBkSEw8UHRofHh0aHBwgJC4nICIsIxwcKDcpLDAxNDQ0Hyc5PTgyPC4zNDL/wgALCAPUA9QBAREA/8QAHAABAAICAwEAAAAAAAAAAAAAAAcIBQYBAwQC/9oACAEBAAAAAJ/AAAAAAAAAAAAAAAAAAAAAAAAAAAAAAAAAAAAAAAAAAAAAAAAAAAAAAAAAAAAAAAAAAAAAAAAAAAAAAAAAAAAAAAAAAAAAAAAAAAAAAAAAAAAAAAAAAAAAAAAAAAAAAAAAAAAAAAAAAAAAAAAAAAAAAAAAAAAAAAAAAAAAAAAAAAAAAAAAAAAAAAAAAAAAAAAAAAAAAAAAAAAAAAAAAAAAAAAAAAAAAAAAAAAAAAAAAAAAAAAAAAAAAAAAAAAAAAAAAAAAAAAAAAAAAAAAAAAAAAAAAAAAAAAAAAAAAAAAAAAAAAAAAAAAAAAAAAAAAHHh0rU9exXk59uY2Pbty7+QAAAAAAAAAAAAAAAAAwsTxbpfUAPVv8qSn7QAAAAAAAAAAAAAAAAcapA8WdIevK+vjw4roDITFOWZAAAAAAAAAAAAAAAAMXXqH+s2WS5A3HM/Y6df0qPI0xZ7Z5nDvAAAAAAAAAAAAAAABGtZcM7JUmzd/oAHRGcH6Nw3G0O1gAAAAAAAAAAAAAAHzAUB/PMkWK2nkAAcRvXPV3ttBKAAAAAAAAAAAAAAAHXWqG2QshLnIAADzV9g/wCfuyczgAAAAAAAAAAAAAB81qhls1rtpAAADiLqv+T6szMQAAAAAAAAAAAAAAgavbbbcZgAAABotS/B22ykYAAAAAAAAAAAAABHdSfjY7hZgAAAAaFUjzZW5WeAAAAAAAAAAAAABj6XYP2XF2wAAAAOIhrFxIttvoAAAAAAAAAAAAAK4QjzZeZQAAAAOKwREtJLIAAAAAAAAAAA4cgDXKV9O/28+gAAAAGMpXidgur6AAAAAAAAAAB4I5j/AFLA+H6yexbnIu99gVnhr6uPugAAAAAhOtyzcxAAAAAAAAAANZgqKPIAM7M81e9jqPeSSLacgAAAADz0kwu4XM5AAAAAAAAADyV/hPpO/bNkyXxiNX1r5MvYmW4crOtlJYAAAAAIAgFc7bwAAAAAAAABrVU9TfUhTJJHtBhYvhfVCWsNH2VvH2gAAAAA1qlHE+2AAAAAAAAAANOqViG3WS30APiJa64kS5aEAAAAABSzVd6uGAAAAAAAAA1unuI5max3oAAYWrOhFmpjAAAAAAVqhf03t7wAAAAAAAAeanWocz5P/IAA8tVY2XM3EAAAAABDlZV1NpAAAAAAAADivUEJksxyAADx14yc/fQAAAAACP6hLayQAAAAAAAAGu0r6NruT6QAAAAAAAAANVpYtDLgAAAAAAAAVrhbm3UhAAAAAAAAAAMBSFZiZQAAAAAAAB5KOeDfLgcgAAAAAAAAANdpIs1MYAAAAAAAAjOpy0EugAAAAAAAAAGm00WolUAAAAAAAAVzg77vPkwAAAAAAAAACMaoLg74AAAAAAAAKjx1tF1QAAOOQAADjkAAAQRXlePNAAAAAAAONXj7TdbxPn7sH5pLtkAAYWFY/wDFscsSp9AimBes+9mliUPsQfDnAHpslvIAKoxhztfj+vfndr3nf/YAAAAAGOh2HtWAJdtAAAjuq+OHMkWo9gU90QCSbT+0pFr4BNdkgA4oxigD1ybNO98gAAAA6IPgrHD27PmvV0YrH2RkAADW6Z+Jt2a0jHJctCFN9Ky29PPo3gSnanlFsS8I38+e3J6Z+2YAFV4x2TPe/wCcdruvfJzIVi9vAAAAGo1d1Iz0uSft/aAAArHD3Nmph5xlUdD+rn7YKa6ZIluOWLqtH/NwN8BRnES/Z4AAcdXcHGMjyKI063dPM9dgAAAOItrD42fsDK/cAAAOKN4eSLacmpUvWMnEUz06R7a8mBpJ1zlYsFGcRL9ngAAADXYDiP4SPabIAAADiHqz/HM0WH9oAAAOuhfVOtiB1UL652sOKY6hJVswpFr8q2oBRnES/Z4AAAAcaHWHXW6W2yYAABGNVOvvs1LfIAAAHTQzrnmwg6qF9c8WFFLtTky2I8dGPLM9lgUZxEv2eAAAABi6rR+323HoAAA1enPg7rWSWAAAAdFC/me7BDooZ8T1YMUs1WT7XHFcYRWplQFGcRL9ngAAAAPNVGOUzWW5AADrp7pHNm5hAAAAHmob8yPI4667cT7YAUp1jbZheaN9D4225faCjOIl+zwAAAADxU+1Dm2MlgABDNaEwWc5AAAAHkodwAT/AD8KTa2BnbcbQBRnES/Z4AAAAA1imnk2O6XoAAPNSbCZe6mSAAAADxUQ4ALBT2KSa6GVlafMsAoziJfs8AAAAAIIrysnNQABENYFjZwAAAAB4aIJ5m0eKkywk8ikWvyhZZ2ZH6AFGcRL9ngAAAAB5qTYTZbq/YAHFRI+yF4fYAAAADH0SWHnYY+iSw87HFIcDLVowAFGcRL9ngAAAAAgevS4G+gAY2jHXMVmuQAAAAYyiqxU5jG0UWInUUdwkuWhAAUZxEv2eAAAAADBUi+JysWABGVT1rZQAAAAAxVF1jJxGLossXOQo3hpfs8AAoziJfs8AAAAAHFNdN3O5QAEBV/5vNlgAAAAMRRlY+bhiaMLHTeKMYmYbOAAKM4iX7PAAAAAArbCnovf3AArBEOTvTyAAAABhaOLITaMPRpZCbRRbFzHZoAcefhSLEy3Zh994AAAABCtbF3s+ACpka7VdMAAAABg6PLJzUMJR1ZKaxRPHTNZcAVkh/hw5O60ErAAAAAIsqquVuYAKjx1uNzAAAAAGNoz1WnlYY2jPVaWWDikmvTzYQAUq1cAnOxQAAAACM6nLibyACp0Z7RdUAAAAAjnX5i7AjnX5i7Bp2gTD7wBqUZcAemYciAAAAAiqq65e5AArHD2QvZyAAAAAAAAAAAAAAAABCFcV4M6ACB69c3gzgAAAAAAAAAAAAAAAAFZ4a9d7e0AEdVHWllgAAAAAAAAAAAAAAAAHFLNW3q4YAHjov5pYtJyAAAAAAAAAAAAAAAAGsUq4nqwYACqMYeq7+UAAAAAAAAAAAAAAAACvMELmbiAAjOpyfbAAAAAAAAAAAAAAAAADG0lx253J5AAfFMdT9t0s8AAAAAAAa9rYO/ee0AAAAAABxXKEFp5WAAEZ1P4ki2X2AAAAAABh6TeMCcrFgAAAAAANDqF17tcT7AAHFV4rT5YDkAAAAAAGnUzASbbAAAAAAADBU7wfdcXcgAAYqnGvc2PmzkAAAAANQzWVGnUzT5v5WTX5NtgONO2LIAAAAABhqjaosXOPIAAGo1Bx3M82A+wAAAACBK/Ze3e1MfDVd1p5WKW6pt1nNy54rnB+x27z4AAAABqtUNbTFZn6AAANGqbjUiWZ2AAAAACBK+mXtBFsS+QtXKRTHUDcJ00qEDYreZ8AAAAHxDtdPEluzvaAAAGpVR117Jtm7LAAAACBK+vX5Ae6Q7O+8iiAdY4D1+RsVvM+AAAAfMdQBpD6nSwn2AAABja2xPw9MmShvua5AAACBK+srbmLYDcyFNcj+gDW4ihfFs9bqEIWbFbzPgAAB5tQjiKdXMzZaTgAAABxHVedOHOUznt+wHHIAdGisrbnb+IPjucpC5ADHwPqtj9j+a2wszOzAA45AefF4LpHqmiesiAAAAB8x1DcceQAAAAWmlcAAAHXTTUQAAADnaZamLLgAAAABx5dG0rWMP4+AefT2x5UAdOncZi3O2AeONtC1/oym2yXtnIPmuUIsvsQAad58rsgHdktg27etj5AAAAAAAAa1SdZ6XwBxAMBcZ27nYPNBsH40HO/WK3PkQ3WZsNu9hACkWvyzaQAAAAAAAAAA1qk6z0vgB4qP4/M3f7TAVS0479h9OFxPDtsRN/JCtbFgZ8ABSLX5ZtIAAAAAAAAAAa1SdZ6XwAg+uSzcxGFp9rraZ6k72ONVhaG+rmwc8nnpfrWYu76AApFr8s2kAAAAAAAAAANapOs9L4A4pZq2w3X7XzUSP0xWT9AONGqniPu28hkO1kWnlYAKRa/LNpAAAAAAAAAADWqTrPS+Bpcd8eKCFgJ9Ikq6lm0P2AabT/AMm0XQ7Xjo54d1k9kJh9AFItflm0gAAAAAAAAABrVJ1npfB80bxAXO29xTXTcpdjIgeGuXtsVBNfFr5OKpxcFlJpApFr8s2kAAAAAAAAAANWpWs/LwPihnRzxzvNwPtr1JOJ4sKB4am6EujnKOeWXbQEY1X6OeFg56ApFr8rWnAAAAAAAAAA41qrmlrdyED4oZ0TbYN6vsiqq64O+eSPN8yTw1N0JI9suyo0d7TdQebq8dHeLBz0DioOg99gZy+wAAAAAAAABxEVbvCkO2/2D4oZ0TnYoEI1wXkzNaoY2m3XrqboSRrWetWiGchezkPHQ5YOegI7qb0JFs/mQAAAAAAAAHxWiHeOZqsT6QPihnROdigQjXBePNV9gRtWS0NI1rPWVnhrI3r5Dx0OWDnoBolXteZe2G7AAAAAAAAARPVplLNSdyA+KGdEzz0y3cRbVRb7f+usURiRrWesVCj/AGy6Ixnm8tKeLBz0AY2tMVNpul9AAAAAAAAArZCvqutnQB8UM6Bt1y+xgaQ8TnYp11iiNI1rPWMZR3zzDZwimrfwLBz0AOK4QkvTlAAAAAAAAAVohnJXrADij2EC5W5uKd6Pkbr5V1wJ4bBescV+gRbWSCp8ZBZiZQAhKt68uYAAAAAAAABWiGclesAGrx/x4a9cT1YMi6qaTrV9gBo1Qujb7l/bxUb8e+ytzkpT7AAhKt68uYAAAAAAAABWiGclesAAUx1DOXa73zU6NUrWZ9wOI6q1jey329kMVpWslEAAhKt68uYAAAAAAAABWiGclesAAQvWpZOajF1A1Vn52lLLOvSoVif55slNR5aWa/nLtd4ABCVb15cwAAAAAAAACtEM5K9YAA8tHMflLx9xiKr6CfWY9OI8Z6rIzDyQlW9YOegABCVb15cwAAAAAAAACtEM5K9YABxXOD2yXV7B1wxBODB9yZYbaAiGsDL282oAAhKt68uYAAAAAAAADD1djz12+3QABXiCWet5sYHToOh670ZTb5Hz4HFfoEZe4exgAeKuMOrWSf8AQAAAAAAABGNX/AfUz2R+wA4orjVppXAAAB1U21BY+bgAabVLAiTLS+wAAAAAAADVqaeZ7PL8rDTuACFK3/OQtpvPzAEeTlKH0AGIgDVbKbZ1VjiNtdvMsAGOpbhXr6epL1nwAAAAAAAKzQ39WflrWqma5k7y9oAISrj85C2cVQibrNMnZEHzqEQQ/wCJmLbQbEba7c5kAEH1yT/PGNqtof3dzPAAAAAAAAplp+/W/IWrWuts4AEJVx+e7pc8HdvlqMmQ7X/CDnju6W126zAAFWonzF4vtH9QlrZQAAAAAAABTfStyuVygqu67WxgAISrj8tgtNF8OYwtTKhTDUX1vs66VAPDa7c5kABV+IsjeP0oyqetlJYAAAAAAAK7QWnWZtQrNjNgu19gAEJVyz1utieeHq1rTysUt1Tc7TbI4gOANrtxmQACHqxpZn3DVm1v03gygAAAAAAAMPTHEBzaKWgAA17J+4adTNOW8lcsDJtsBxr2Z9IAA89ONRBPlgQAAAAAAAGo1Z1fh7LETRyAAAGnUzASbbAAAAGDq3oR2zlYP7AAAAAAAAOvQNayUh5LkAAAGKpRjgczzYMAAAD50rUPTIGdAAAAAAAAAAAAABicADu236AAAAAAAAAAAAAAAAAAAAAAAAAAAAAAAAAAAAAAAAAAAAAAAAAAAAAAAAAAAAAAAAAAAAAAAAAAAAAAAAAAAAAAAAAAAAAAAAAAAAAAAAAAAAAAAAAAAAAAAAAAAAAAAAAAAAAAAAAAAAAAAAAAAAAAAAAAAAAAAAAAAAAAAAAAAAAAAAAAAAAAAAAAAAAAAAAAAAAAAAAAAAAAAAAAAAAAAAAAAAAAAAAAAAAAAAAAAAAAAAAAAAAAAAAAAAAAAAAAAAAAAAAAAAAAAAAAAAAAAAAAAAAAAAAAAAAAAAAAAAAAAAAAAAAAAAAAAAB//8QARBAAAAYBAgIGBwYDCAIBBQAAAQIDBAUGBwARCBASExcgMDEVITZAUFVWFBYiN0FgGCM0JCUmMjM1UVJTVKAnQkNFYf/aAAgBAQABDAD/AOYHvrf96bhvtvqRnIqITE8jJNGpZPNtHjREpZM7s77iRikxEGEE7W064kZo+/2WDYpAtxB3NQR6tONSA2eb0I7/AGpmGiZ7vJR9blkbSHENb0xDrW8YqDTiTkiiH2yvtVAYcR0AsIA+iH7YYvMFIlRAqc2mgdo/Zv0gVZukHCe4f8/uvcNT1sgq0j1svJt2oWDiMYICdKAi1HJp3LtznDGKeWO1RWcLOVRVXVUVUEd/B320yk30asCzF44bKQOcLlDiUrh2lJI17iDr0iJEZhstGKxsvHTDUrmNet3SO4fubcP+dW3ItdpyYhIvimc2zPNhmhUQhiliWrl24ernXdLqLLc9tfrtpvFyDsQBswdLab0W1uQ3SrkmYAxldjBuFZkdHxpdSBuasyOzimWdr/r1+TIC7J02HZw2WSHuxU5KQborqLfLtFqlxCu25k21nZg5Tr9ph7QzB1EP0XKe+/7jnbDF1uOO/lnqTZveM8ScsKjOuFNHtFl1XCplVlDKKc4Cg2iy9EYyHcqJQvDjJLAU81MItgicEUuPAouGzl+dhTa1FgAMoNgiJEU0w2TIUobc9tLNW7golWRTULJY8qEsA/a6+xMaY4fKq+ATR672PPN8PVlYgY8W6ayKcxXJmvrClKxjpofnFy8hCvSPI14s1cUXPyS/VsLWQqKjR23etU3LZZNZH9v76yJl2KpxFWLQU30vY7RL2mSM9l3Z11OSKCrhYiKKR1FKpgawzQJuJc4RTSs4lqVaAiiUeDt0UhSFApQAA8R0zbPUTIukE10rTgqrzRTrRpTxLq2YltFT6ayzQXjIQ2HnSckTlJdh9kW69hS79C3ZgC0csBHH7dUOCZBOYQAMnZsEvXQ1UWDdRQ6qhlFDGMfQBvqjYbnbYKbt2Bo2MqePq9T24FjWRftABsHuJigYNh8rrhmvWkijlqmEbI2+gz1KddXJtRFDlFSz6EkUX8c5UbucZ5dZW9NOMkhTazP7bWWTQROqocpCZXy8pOqLQlfWMnGcoiFfz0ikwjGqjl1j3CcbXgSkJ0E38kUoFKAB5e6PWDWSaKNXrdNw3yLgtVl1snVCnWQUTMkoZM5RKbSKyiCpFUjmIpiXLxZ0qMDYFSkkg/bJzgQgmMIAGYMrGm11q/BrCEaPnyplJlrpKlaRyeyVKokPSY0rePS6bj3cQ3DbWS8RMbakrIRZSNJmTjHsNIrMJBuo3daIcyahTkMJTYfysFhQTgJtUAlf2uOs25OFv1tVhV/5nKhUORvMyVs2AUmdbrcbVodGNi0ASQ96yNjaPvUaJvwt5WZhn0BKrxskgZB1pu4WaOE10FDJLYoyOldIb7K8MQkx+1ss5BLS68KLU5Rl1lVF1zrKnMdTVLp7+6T6UcyDokrNbjqtCIRkYkBEffMnY5a3mIMdICJSz9g5jH67F4idFzqvWB9WZptKxygkcVC0MrdXW8syH8P7UnJdpAwzqUfKAm2t1md26xupd4I9LUTGO5mUbxzFEyrrH9IZ0evJMkeid176IbhtrM+NS2GPPPRSQelBASjsPLEN7NT7KVB2oIRRDgoUDFEBL+08+3YXkkSrsld2+gDcdYNx8EPFhY5FLaQD1B7+IbhtrNuPgrkt6djkto3QeesG3gbBXDQrxTpP/wBjbhrfw71Z0ajUXsuoICo7dLPXazpyoZRfWJaSNwtqYuExGMIUpCFKUoFD4BYIRnYoN3FPidJvZYJ3WrA7iHpdltUqzr1C1MpdERErJ4i/ZIu2xwUQ/YEnNRkMgK8k+btEpzPtSjBOmxB1JKynEbOriJYyKZtCvsxXp+I7ziiAOLpaHYiK9hkz6NOS5h3NKPhFOwTKQ7py78otcgW9kIChY5Iuo/ON5YiAHkUnZYniRWAxSzECQwQOZKXOiUgSX2JdFwk4SBVFQqifd4gbWMjYkK83U3b6IQyhwIUBE2L6eWnUxq1UIAPfgI+WuICmg/h0rM0S/tPLAFt9KVlaBcH3c/HRHbVpvteqCPSlXxSLWriAnJIVG8CgWMbyEo/lnRnMg8XdLeFX7jYKusCkRKOG4VLiGSWMm2s7LqhipuNnGRXkY8Rdt+U9LIwUE9lHAgCUnILy0m6kHRhMvrCtU+8d4Scrp9JmHkHwN8zQkGDhm5TBRC2QC1XtD+HXAd9Yxso1a9xz0x+i2KYDBuHl8bkJNlFMlXj9ym3bXzPbl0ZVhVAM3Qcul3jlRw5WUWW5tmTp6qCTRuqupHYnu8mAGRgHCZGnD5cVwAVlY1vonDfPiH45qOKKvDjYih/Ll40+neA7s2ARSSZOdSeO7fEAJnlffFIdM6RhKoUxDc6/ZpesPgeRD5VsrQM4RthMnHzwEj5EpwOG5R3DiFsP2GqNIVM+yvLCFaCBoKDlUmzr4GPrDXEVWej6OsiKfr0Hn6tYxn/vJj+LenP0l/jVyu0TS4kzyRV3Uu+QZm7vxVfKik05FIJhAChuNTwzabMCa6jcI1lXsC1WJKVSRBWVcR0THxKAIsGLdqntrYOewa21M1OBsCYklIho51ZOHeIeAdaAfKsVbTjqy1I5jSUeYWwhty31jbMr6tnSjJsyjyJzHaELReTrMlyrsdVmHUn7NHRSYCItm6bVsk3RKBU/gl+gAstIlYzogKhiiUwlENh1w4zgiMvBHP6vjOQcgR1FhxWWEFn9iscnaJdaTlHBlV9AG+qXjqduzrZih1TOl4nrtPIRYqBX0hsHhqIpqpmTUTKcl2wVETgKPIHoRr6frUtWJIzCXZnbrctxHlw+QoP7w4kjl3IHl8FHy1kiF9AZBmGJS9FPWH5f0RkyKOJtk/jF1uDCmQCsk8N0j2SxyFpm15WSWFRfQBuOwaxjhdabKjL2NM6DBkxbR7NJq0bpoIeNZKvE2qMMwlWhF0siYwk6M760oGdRXPh1iwa019ImL+P4L+muIyK+zWiMkwL6tRzszCSavCDsdm4K7ZouCDuT4tIPm8ZHrvnapUm+Q7w5vFjUemEybPQAIjsGsQYhKcqFksTfcClAoAAAAe4v49rJslWbxAi7fKWL3FLfC+YFOrC8sWRhojG0I2OQSKfBuIuP6+mR74C7jyxw+9I46gXIjub4qIgHnrPl7FVwWpsVv5fLC+MwnnRLFLobx5SgUAAA29zkoxpLRy7B8gRZtZOHmaQenPXnTd00pfD+5QkEntoXQFIhCkIUpQAA+DZqaA7xZLerceWC3QucWsSiO/xa72ZCpVN7LqiAnevHEg9XeOlBUX1j6muLraUI4nSK1YMG0YxQZs0SpN/juSUevxvYCc+Hdbp4/cp7/FuIO0i9nm1dbn/kaABEdgDccQUsKnTkTuEwCR+PXgoGos8A+XLhxNvTZMvxWTfpRcY6frmAqM1KLTc09k3BhFXWIqr96L21Ksn0mYeQfH76oCVAnziPPhyJ0aTIn+K50m/RWOV26ZtleXD9XgjqYrLKE2W+P5WcfZsYT599ufD8h1WNus29fxTiQlBPMQ0UU3q0ikddZNFMNz12KJCV2OjEw2L8fz09BrjFwlvsblhtn9jxZDAIbD8Uze+F7lGRLvuXWOI4JXIkE0MXpF9w31vy3D/nwtw7u4f898RAPMfd+JKTArCEiyj69bCPqDzqTEIuoRDHbYee4fCRMAAIiIAE3kap17pFfzbUFZbiNhEBMWLiXbsZHiJs7kRBkwjmhXeZr47Ef77MiC2RrkuO6llkh19+LXv7RymkshXBEdyWWTDUhIO5V8q9fLnXdawQ1BxlBqcQ39wsdrhqqy+1y75JuSx8Ra5zmSrsUQhHuYL0+OImnVUQTybdkjdItlkBGIzxco45ftazaQTqedq9PHTbSZRinZFCKEKchymL3st5UUpvVxMUVM8qvk67LrGUNZX4D2kXT6mktdpF0+ppLXaRdPqaS0lk67om6RLK/EYfPVxjzl+2HayKdUzpXLAdNtIAaKdpqFUIU5TFMXuZYzC7gpNSArxkyOz5LupziYbLI79pF0+ppLXaRdPqaS12kXT6mktdpF0+ppLXaRdPqaS12kXT6mktdpF0+ppLTDKt2YuSrFsLtXWMshI32EOodMqEj4Y+Ws8y/pHIyjUpt09FMJDlMX1Ctk66rl6JrI+Ap73bDjuaxyg6Jfbcn/lskoGm+Vby226FjeG0xzzd2oh1zhm6LGcSTgogWVgEjhDZ0pcqJSLu1o9WPlY+VbgvHvW7pL4FuGpidjIFmZ3KPkGiFn4iGaHTb1tgLk9gyLarMYwSMuv1Ijv6x8Hh3RMa/O1eiPR8bJuUGlHZfZW3VuZiZnZKwSKj+UdKOXPcAdtY4yzJU9wRk+Oo7hoyTaS8cg/YrkWbd3Max1sqTfTMI98B2HWOcsylPcJM3qh3kPFSrKajEJBg4Iu253lFyhepxN2Buu8HhwRcDaZZYoG+z+GI7FEdWZ+tKWiUfL79Z4LCTfRbgrhg8XbK1nPlliDESliJSreq5cq1q6CKTwGb0DAIeYe/vHjZg0UdO100ELvn9BAVGdUSKupMT0pPvDO5V6s7X7jGIkpM4EYsHTkzLE15fAAp150mCGBLyqACZszS1/D3ctv9WN0rgG7ph+BNgrp3hu9tNxGCUVBpjO5vHYNiV1+Q+LMdlosOqLk5FZTxbxbG9MrDqVXADHl5V3NyriSfrCq50Ab6g8Y3CwpFWYwqwIOMF3pBIVCx7dbUvBSkC6+zSjBw0W5YRyApBTha+/W/u3u5cHfKc9yrlef2mbRiI0qYuuwK8D/+FhrsCvP/AIWGnWC722TE4R7dfUtCScG6FtKMHDRbXlrDWQz1idJEv1v7pKO4b88mYgbXNf0nHrlaSpsA3cDCBU2Bg7Arz/4WGuwK8/8AhYafM1I984Zrbddqp1CVuckrHxBUjL9gV5/8LDXYFef/AAsNMeHy3ruikdqsGqNIpUdR4MscxEyh/DHy1ljGUlCTzuXjmiriJQZO3KvVINVlVGONLlIgBm9df9Fvgq9LgAmYN0dF4e7kYPWrGF0pw+XMgblPGn06wfe2wCIRaS4SFCtkWAi8r8gmVRM6RxIoQxDcwESjuHnTcwWSqnTQVWGRj6ZkeAuqIAwcdU7398vGQoajshO+VBV3dMiTl2diZ+v1bPnXaZYLSr0IiMXcFr3DmoIEVsMt0NQuKKZBgUW8Kisqi2RbpgmgkRInunEDZzSVsRg0jj9n0UpjnApSiY2K8PM4RmhMz7cjiVKUChsHKar8ZYY5RhKtE3LfJuOnFFlydUY60VohzJnA5REDY3sY2mixskobpL9zLI75Sn9+WDw3yrG6Dy5ztfjLHHKMpVmk5QyfjZxRZIqyBjrROgHYQEPPEdpNZ6EzVXP03netXtdM8uHX28fe4iUDeeiNUUjCZNIhB7ohvqTrcLMkEklFtHQT2AqpJFOpHGcxi1kwXa4QDLMSJyrZw3WarnQcJKJK8mzpdm4TcNljorY8zsIilGWwwboLpuUCLJKEUT94Edg1k7LrWopKRkV1bmZk5R7MP1X0i5UcOuVXps5b3v2aIZHVCm4Gg4YpHM6f0q8bNUGaBUGyREkvdhEAKIj5WyRPLW6XfnHcdYRric/kBFVwQDtwDbuZKrqVmokkyMQDLcuG6RMpCTUcY24dzKw75RsHLBgb5Uj9B5dy41tvaqs/iXBQEV0jt3CiKheiprhvlDEl5mKE34O9ava6Z5cOvt4+98slHr9sQFOXj01T3TA8vDdY8gFDSbNVI6Kpk1CGIfQDsOsb5XkaY6TZvBO7hoeaYT0ajIRrgjhr7sI7BvrLeWS1xNSEg1SnlVllHCx1ljmUU0UonMBSgIjjvBrmWBKTs4KNWcZEsYZkmyjmyTZt7w4HZsqOnI7ulh5cNZCjJT59vxdxyAGbKlHycAAOVQDy1w1b+kbAH/29zKQ75PsO3LBAb5TZd0fLV6TTRvs8ml/k1w+mMXJIlDy71q9rpnlw6+3j730Q3DV6xXB3NE65kwZydupcxTJIWko3EpeWPMiSNFlAFMTLRsHOMLBEt5GNXKs291y5kwlOjBjo45TTK6yjhdRZY5jqaZs3Eg8SaNETrOMY4daVoiUrOETcy4BsG3vTsdma46XHdwoPLhqD+1WEe66/pVtL/wBQry4ag/t1gHuDrJw75MsI8sCgI5Sa7d2Wkm8PFO5F0cCIST08lKO3yn+fXDkwMtbZN/0fwd61e10zy4dfbx97/OwEbY4xWPlGxHDfJGL5CjPBcpdN1D8sY5Fc0aZKVUTqxLF63kWKLxoqVVv7nfLi0pdaXkXGx1piXeTkq5kpBYyrnTRo4fu0mjVE6zjFeLm9MYEfvykWm/e3vqYOB0r61T8uGoP5thH9O48/ol9K/wCspy4ag/tNhH9eY6yUO+SrDywGG+UEO4cwEIJjCABmrJ6EyU9ahVgO00HnrA9bND0b0gsTor961e10zy4dfbx98AfsGsmxWZPUCLtspYycUiQF2z6a0NoPUOsI5HGHfp1qUW/sADuG/uS6ybdA6ypwInlC8qXa0qrJmMEdoodIwAHnhjGYV9inPy6IDKe+SA7RrodH/wA5uWK8kNMfekxdR67vX8ScR9PPtfxJxH08+1/EnEfTz7X8ScR9PPtL8R8Ss3VTCvvQE49I5jcuGkPx2Ef15j5ayMImyPYRHljm3IUi1kmXLVVyn/EnEfTz7X8ScR9PPtPOJJp1Q/Y66uKlsy7Z7Ykdqq4KyYiO48sd0txd7QgwKUwM2rZJm1SbIEKRLvWr2umeXDr7ePvgMtFs5qLcR8ggVZrkOjO6NYTtFOkoy0URKYDAIgOG7797q2DJ4pvK+456u3omFJXGauzrlhDHoWCU+8EklvHgGwe+yg7RD0dG/wAw+Fw0+Vh7g6yF68iWAfAqtSlbfLEYRaAnGj0qPpMERgyADq9+1e10zy4dfbx98CvdPaXSsuI1xsRaTjnURJuY96kKTnVItLin2lpLIdISMXiEgxQeNlAUQ8d+8Qj2C7xycCIW6xL2uzvphwI76rMA6s1hZxLMN1YGFaV+EaRbEgEb++y47Qr8dD5j4XDUUeosI92++vIFg7oBuOwai6zOTagJxsU7dDUuH2TeHTXsrojJCArcVWY4jCJZptkPAtXtdM8uHX28ffA8/wBIBZsS1sUv5vLh+toyMKvXHKm6/j5+s4xNRShkVNnHLh8qANItxZnSf8736aHaBkR58PETHSbGdM+YNnQ/dWv/ACON191a/wDI43X3Vr/yON191a/8jjdS1XgCQ70xYSOKYfPlw1B/Y7APcHV6He+z48sDMWkjkBRF61RcpfdWv/I43X3Vr/yON0jXYRA3SSh2BBImRMoFIQpS7eFava6Z5cOvt4++ByLFvJRzli6TBRC3V5erWh/ELgPKg2Q9UucdKAYQSSOVVIqhDdIniiO2szWD09kV8BD9JvqCiV52dZRbcN1YmObxES0j2pAKh79PDtXZMefDX/tU+PdnfVASI8+GoA9HWAe4OrsPSvU8PLh4D/6hr+Pava6Z5cOvt4++CcRVZBRqwsqCYdLlh+xfeDHUedQ/SceLYZMkLXpCTUEOi4XUdOVV1TCZTXD1Xgf2t3Mqk3TANg9/sQ7VmVEOfDWH9zTw/p3LCO1blBHy/Tlw1/7VPj3biIjdZwR5cO4COQHQ+Pava6Z5cOvt4++CXGCJZKlKRRwARVTMiqdM4dE+uHGaFKWloQ5vw+LneV9HY1cIFNsfXnrA8N6Mx0i6MXZT3+zeqqy48+GwP7hnR7tkHaryw6/Tlw1h/ck8Pdto73KbHlw6hvfXo+Pava6Z5cOvt4++CD5aynDBB5HmGxC9FLWKJUYjJcKuJuiTxeJOQ2JAxwDyKAmMBQ86vHFiarFMCl2+AWodqhMjr9OXDYH+HZse7aB2qcwIef6cuGwB+784P6cx1aR3tsyIcuHMP8cvx8e1e10zy4dfbx98F4j4wEbLFSRS7cmDkzKRbOiDsZqsVy0RXL/l8TiJdCrfGjff1arjT7fZ4pptuAAAAAB5e/28QCmTYj5fpy4bvZmZ7tsHanzQhr9OXDaH+Gpoe7ZB3tEsIcuHIP8AG0iPhmMBfPQyLEoiBnjcB9JsP/eba9JsP/ebatAga2TBiiAl1w9Lot7y9OsqRMvpNh/7zbXpNh/7zbSb1qsbopOUVDAO4fAeJBmClXiXgB6+VHdC9osE4Edx8TO6oqZSeF39WsaIgvkqvEENwDy+AXMdqROjoPLlw3h/hSXHu3EdqVODr9OXDcH+F5ge7YB3skoPLhwD/GUoPh5jyZIv551Xox2o3jxOcw7icwj0jf8AYddI3/YdCIj58gEQ8h210jf9h10jf9h02euma5V2zhVFXCuQXdujHEbKqdZI/AM/pdZjQ5+eJ1etxdAG8XOP5qyXLFIgGUa/v8BsDA8pXJJgmOx3LZVo5VbLpmTWDWAIhxHUFR0uQSB3LAxPJ16RYJjsdy2WZuVWzhMU1tcP0Q4jqIs6cEEncH/+avMO5g7tLsnRBKbXDfDuAey8wYglb+FkOIcw19mGzkogPg8OES5NMysuJRBt8AzyIBi13vzw6AhiqD38XPKIp5RdG5Y4WBvkivqCOwB5fAbvh2BuLwz8DKMJCC4d4SPekcSkivIlQQSbIERQTKml3bth6BuTsz8TKMJCC4eYSOekcSci4kSoN0myJEkUypp9y7Y4hLykUZBM6Ttjw3xaLsqj2cdLoQ8OwgoxGPjWxG7bwrrjuEu7YhZBIybg/DUgJh6FlVAv8NKX1MfX8NKX1MfX8NKX1MfX8NKX1MfX8NKX1MfX8NKX1MfX8NKX1MfTHhujknJTvZ1yujCQkfXopGOjGpW7b4BxBLAnjbq9/XyxQj1OLoAoh4vEW0FK7sHO3q1BO/sNgjXe+2iGA5CmDy/c/Ei8AlfhmW/r5Utp9hpMI2ENh8TiSjxOyg5EpeQCIDuHnTZMJimQ78B3H9z8RcmDm3x8eUdy6i2hn8szZkDczdIEG6aJQ2L4mbon0njJ+oQu6n68sATISFBFgY+6v7mHy1keZ9PZBmXxTdJLWH4oZbJsQQS7k8vFlmCUpEO49YAFOQZKx0i5ZLlEqusBWEIq7njFT9FEB3D9zZAsBazSJWS6WyhjCYwmEdx1w4Qe60vOqF9XiiG+s6170Nf1XqZNm+ox+vFyjV+2N0V67NN7DXmEs2MAp/uXiJtHXO2Nabqfh0HnrF9e+7eP4xmcvRceNm+qjYKKq7QT6Tvlw9XACmc1Z2rt+5Z6Za1+CeSrw4FQnZhzPzr2Vdm6S+sW1cbXe2LQ5Ok1KUCl2Dy8ZZMiqJk1CgYmRqmen3J7HgUQbaiJNzCy7WSZqCm5p9naW6ttJZoIAHw2w3iu1UShMSiDZTtwoXzZTXbhQvmymu3ChfNlNduFC+bKa7cKF82U124UL5spprmeiO1ypEmgTM3cou0CLoKkVS+GCOwb6z5eQfvS1ZiruhywXUBgKmMq5T6Lz3DM9I+9VUM9aJdKSENh/XliLIA0ywA2eHH0SkqRZIihDFMX4Xa5kK/VZOX6IGGTk3kxIrv365lnPf4e7Y7CYcVlwqZRr8MylfkaTXD9ScppRdZRw4UXWOZRXWL6We529BuoQ32BJMiKRU0ygUnuAh0g2HWaaANYnhlmCQhF6Adh1hTJ4EBCrTa4AADuHwvK35W2HwcCfmk2+GW20x9RgV5SRUACWu0SFunnErIH3U00arvXiLVskZVfG1IQpNXRaCBTPvcrBBMbFCuouQT6be41J9TZ9eMegIhophIYDFEQNiTLpJRNCAsK4FfgO4b/AASXyhToN2Zo+m0AXg7JD2RsLiIkEHafcyt+Vth54fxvV7VSfSMxHiu57EqF8nNrsSoXyc2uxKhfJzavMa1h7zMxzFPq2usCfmk27oiBQEREACQyrSot4LVzPN+tiJuMnmYO4t8g7Q+B2WyxtVh1pKUXKkjfL1I3iaM6dCKbXlg/G32FFO0y6P8AaADYNvdMg0RleYE7RbopvJyFfV+XcRskgZFzophIYDFHYcX5rBIqMLalh6KSpF0iqpmKcnwHL2X+r66uVxf8ZjCYdx861ZpKqTKUnFrCmrRb1G3mGB20EE3PKUnIuEbivKP27RLJOZazLVeSgYoHLtUfPlw+/lsPcyb+Zli5Y2tbWl3BCZeIKro1/KlQsglI0lU0XBTAYoCAgIaMYCFExhAAy9l40idWvV1cQZiO+qdc5SlzJH8eoIkqNujLlCpyUaoAh8Bu19h6THCvIK9NxcrrLXWWM8kVNk9BrD2LDT7lKfmURLFkIBCAUoAAe65HxwxvUWI/hQlJuDkK9KLR0m3Og50HqHVAy3MU1VNov0n0TV7nCW9kVzEPCqD7/l7L3V9dXK4v+MR3HcfPlWrLJVSZSk4xYU1ozNFUdVUkw8eFaq2ziAl5AyiFdbhHN5CUfSzkzmQdrul+eAUVEsaJmOUQDkOspIqI5OsBVCiUeXkOqzk201UxSMpE6ran52gZzq2swT0U9y9l4ZIy1erywgz5025SdKmiSEefclRt0ZcoVOSjVNw9+UUKkmZQ5gKXIGc4+IIrH1vq3z6Vl382/VfSTpRy50GsU4kXsy6UxNpHSh27dJq3TQQTKml7veqDFXiMFF6UEnVupcxTZQzSTQ2JyjZR9DvCPI90q2c03iCVT6tramoqBCWaGsbYHERIIOye9j6g1l7L3V9dXK4v+MR3HcfPTCMeyiqiTFqs4P3o6HkpdUEo5g5dnrGDLTLPEjSqARbKGiGkHENY1imCbbkPrDWV8T/fJQsrEqJoysxjq2wXSF9BuwTMUSGEpgEB7rOMeyCblRo1WWJyptyk6XNEkI8+5Kjboy5QqclGqbh72ocqZBOcQAttzNV64VRBuv6TfXHKdjuJjIuHH2VhyIQyhwIUBE2McKHcijMWpESIpJERSKkmUpSe8zcDG2KNUj5Rqm5bZAwnKVwyr+E6yRjDFEphAfUPJjIPI1yVyxdLNl69nu0xQESkioyqMJn+pvwKSQI6jVY24V2YKUY+aYuNFMBg3Adw92H1BvrL+Xur66uVxf8AGI7juPnqu12RtEwjFxaAquKFQY6jw4Nm4FVeZdw+JRXsdcQ/DyKUTGAA9Y1PDdos3QXUQCOY1vBlUhSkUepHlXLNi1YIgi0bot0u8IbhtqdodZshDBJxDZU9p4dzEA69ZkenqbrkvXHgtZdis1V5VKpSdymk42NS3GoUqKp8EEYxSKccuYjNDnVsFfRE0fyptyk6VNkkI84iSo26MuUKnJRqm4e7upBmyTE7t0ggSYy7SYYDArNJOFJ/iNAAMnAQw72LIVntPSLJyqxkeddq0xaZArOIZncKY9w7FVIqchIdB/LgHvghuGrth2v2zrHSBAjpK24zstQOc71mKzPuAIgO4CICys05HbfYph+gDfKt5bAAEsjwQJmi+k//AHgjrtsvvzkuu2y+/OS67bL785Lrtsvvzkuu2y+/OS67bL785Lrtsvvzkuu2y+/OS6DNd9ANvTQDrtsvvzkuu2y+/OS67bL785Lrtsvvzkuu2y+/OS67bL785Lrtsvvzkuu2y+/OS67bL785Lrtsvvzkuu2y+/OS6e5hu8gyWaOJk3VCO47/AK6rtdkbRMIxcWgKrig0GOo0ODZsBVXmhDcNtZJwcaWfHlqv1CK8dg67vHgIrx6TROlYhr9SIm4USLISQBsHiTEJHTzIzOTZoum9z4fnSKxnNUWKsjEYMub96RN40Sj0KbTIylQpY+PJubR0yqEEhygYuXcRmhzq2CvoiMfyrtqmao8O6hnyjVXtqvvzvXbVffneu2q+/O9dtV9+d67ar787121X353rtqvvzvXbVffneu2q+/O9dtV9+d67ar787121X353oM030BEfTeu2q+/O9dtV9+d67ar787121X353rtqvvzvXbVffneu2q+/O9Dmm+iH+96Vy/fFQ2Gwrl07v1tfAIOLHJGBw7cOjidw4VWN3GEa9lXZGrBqs5cUvh/dujJu7Sv9mShoKNr7AjKKZotW/v5yFUIYhilMW0YVqljE66TcYx3YsD2qJMdSOBGVbvox9GLig/aLtVffMHJ1gtS6cOIGkveF+r6owKgUU8kkrhLi7LWBEWXvYAJh2DzgMc2uyGL6Ph1+qrPDqgQSrWSTFU0FV4atNgbxEcg0T+B7B/xp/GMZREUXzNu5SlsJUiVExixpmSkjw2NxETRlgUJp5w8WtHcWryNcgvg++IiO0Wkro2Hr4UfZ9UddkF8+nl9dkF8+nl9dkF8+nl9dkF8+nl9dkF8+nl9dkF8+nl9PsW3ONYLvnkGsk25QNDs1mYmew8Wo6b9kF8+nl9dkF8+nl9dkF8+nl9dkF8+nl9dkF8+nl9dkF8+nl9dkF8+nl9dkF8+nl9dkF8+nl9dkF8+nl9O8VXZk0VdOIBwVIQEo+vlWbLJVSZSlIxYSLUW9Rt2hivGpgTc9+QlWES2M4kHiLVGdz5UosTpsftMmrI8R80qYQjYZm3Kvni9LCPRetUQJnC+FNuMqkbTPiDuKAh9oSj3JYjiQanOUkxBKpBXsl1OzCUkfLJAuUwGDcO+dQqZRMYdgy5lw0iZau19cQZcoGrzNndnawzFR2r2O3z5ArrsdvnyBXXY7fPkCuux2+fIFddjt8+QK67Hb58gV12O3z5ArrsdvnyBXXY7fPkCuux2+fIFddjt8+QK6fMnEc+XZOkxTcaga5LWd+LGHaGdOex2+fIFddjt8+QK67Hb58gV12O3z5ArrsdvnyBXXY7fPkCuux2+fIFdJ4Wvqg/7J0dNsA3ZcQ61NggDDhuk1BAX880SCL4eKu0EDP3j58aGoVXgBKaNg2aRwAADbb4Zt38h/l3YOfDr7AvPDEAEPWG+su4i6PX2Sut9CAlH18qjZntTsTWUZqGDTdcjlukun/k7jx+1jmqjp4umg3u3ECVI6rKpogpqYn5Wfdi6lX7h2t3gEQEBARAajl+z1UyaIuTSDGk5NgLqiBGq4t34DuG/dz/bXURCMoVkoZI/KoVCTuM2nHR6eqdT42mQhI6PTAR28LbV69vp/lw8/mKt+wMh/l3YefDr7AvPElpJrDxTqRemAreckizE29kSoEQDVUr7q0WRnENCiJ2yBWzZJAn+Tna7dFVCHPISa/QLe8izF4fCLpQUGPNszdPFATat1VztccXJ4UDIVuREp8VXkhekNbeCD+q2CK3F/Cv24bCHNu4WaOE3DdU6S2MM1FkjIwtnWKm6AwGDcPLnxC1hxIQbGdbEE/Ph2sjPqpCuqppkdeJevb6f5cPP5irfsDIf5d2Hnw6+wLzxOIa1C2iWdbbKbKcsD0oImvnsLpIAec7TZWFUgl5WQU6KVyuEjc5xSRfqCAaAN9VHH8/c3PRjGmzesYDrkSQi0uY8q6j4qPikARYMW7VPbWwf8aEoGAQMACFgxxVLIU32+HbgrccASUaRR1W3HpBBw2XaLnQcJHSW0A7CHr1hnKhnZkavOOBFXz5vWiL9oq1cJlUQvlVVp1teRJwEUtVadXrVlYy7cfxsHqEiwbvWxwOh4d69vp/lw8/mKt+wMh/l3YefDr7AvPDMYCgIiOwZFsI2e9SciBhFHVIrilrt8fElAerbN02rdNuiQCJclFCJJmUUMBSZXvyt0sh02yhgidAG/lrF2HVbECUzPkOjGMmLWPZpNGjdNBDvbAP6ayBjKJu7QyhkytZOyVuTq0wrGSbcUltJKnRVKomcxD4kvxbnW+qdnD0rzz/VAk6wjPIJ7ueWBLGMtRjRqx91/DvXt9P8ALh5/MVb9gZD/AC7sPPh19gXnf8tXbJkFRykTeqKLvB4lWu47Vpfb+JVt9NLamOIkshDvGjaCVbr+fny4c67/AC5OxKk9fPOtyNBVckM1V6LzlhvGoWqQCZk0v7qTTKmQpSlAoeB56yJQmd5gTtjgVJ9JR7mKknDB4iZFxrH9sVp1uZyZTD9nbrpuUCLpHA6fKVj0ZWLdMHBQMjMRqsPMvY1cNldY1v5qBMOnZmpnaH8Srb6aW1/Eq2+mltRHEVCvXhEZGMdME2b1u/aJOmqxFkO/evb6f5cPP5irfsDIf5d2Hnw6+wLzvnHokMOrRLuZ2zyMi6OJle7jCGCCx3DtBL0VOQiAeeso2QbPfZF2U4mbarkG5slgZRDQu6sFDNK/CtItimBG/fl5dlBxi8hIOCoN7NxAWF4+UJAlRYM6bxASacgk1tBUnDRFUi6JVUzgdPiCpRDII2tklsflgyyDN0MjNY/Sc889QwRmRDOyF2T7vDpMOHdbk4xY4nS7969vp/lw8/mKt+wMjrJpY5sAqHKUOXDr7AvO+r/on09/r3PIAEfINbD/AMa2H/jWO8cSlxmUDHaqoxSSZEUiJkL0Scr1MegaPMSQG2OIiYRER3HXDpWiquZKxrE315B35eXYwcYvISDgqDbJOSXt5kugQToRXLGRnBsaQAut+tm4lvOQr2MclAUZJgrFybpguGyuuHuZFleHEYc38vnmaguLjAoOo0nTknTJ0xcHQdt1UFtAAj5Bz4af6Ww+BevVfp/lw+Kpp5GOU5ylHff46IgHnq4XmFpcaLmSch116yTNXd0YHCgt2HLC8IpC41jwWIJVe8r/AKJ9Pf69zy4c2jZ1LTpXDdJYPQ8Z8uaa9Dxny5poiREygUhAKXnxAPha44BuA7Dyw5FhF4xiQ6Ox9SEkzi2Krx85SbN1M80hN2KAOnhyws9GWGPI+inqTpvyl5djBxi8hIOCINsk5Je3mTEhBOhFcsX4xdXSQK8eEMjDN0E2zdNBEgESHy1m2LLG5PfmIXYmsbvhjcjQLgB2DmIb6XjmTk3ScM26xvQsV8sZalYaLLEPTFjWYCPmPLhp/pbD3x8tZkhFIbJUmIkEEtNHbhi6TctVjorY6zok66mKtZypLJqpqkKdM5Tk+NCYCh6x21kXNbGvdbGQQpvZKVmJCbkFX8k6UcudeesW44dXOZTcuETEh0kyIokTTKBSd5X/AET6e/17nlw1/wC7z3f4kVdq9CJfpr9NVJAG1QhkShsGuIWyOnFmb18ihitN/Xvqi3uTo00V40OKjWs2aNtcKjKRi4KIy8uxg4xeQkHBEG2SckvbzJiQgnQiuWMMYOrq+B27KdCHjo5pFsEWTJAiDflxHIFJb4pYA9eoFQUbBGqB5gO4d6W/2d7ofMeXDT/S2HwMtY+++0CVVmUoSrtouydKNnKJ0Vtb6x7lqWpihGjkxn0TW7RE2qMI/inZFk/jCqhEUzKKGApMoZldza68NXlzN4wREfPkUhjmApSiY2OsGupPqZWzkUbNGEe0jGaTRk3Tbt++r/on09/r3PLhr/3ee7/EiiJq5CrfpyqDgHVOhVijuGuIKlvFHiNqZomVQ5US9SdGmiu2Z+m1yPkp9epEAL028XyxhjB1dXwO3ZToQ8dHNItiiyZIEQb8+I1wClwi0QH16gEhXsUYkXzDvS3+zvdD5jy4af6Ww+AIbhtq+4vh7s3MoYgNZO2UyZpsmLOVbCQOVds0tVpQkhEuzoK45yGyvkOKpQKhI/F882lWEpycY2UEjjlA16UssmnHxTQ7hfHeHouplTfSRSPpcA2DbwVf9E+nv9e55cPctHRMrNnkX7ZoX751j6hi9ffKsfUMXpu7bPESrNl0lkuefmAu8bGXKG48sMSgSmMYv8W59LIpOUTorEKollrEqlYWVm4RE6kP3MYYwd3V8V27KdCGjo5pFsUWTJAiDfmPlrNMoEpk6R6BukTWM2AyOSIFuAbhzEdtPLFCRyvVPZdi3U++dY+oYvUpcK0pEvCEn4wxh8x5cNP9LYfCmoKNsEcoxlGiblvkTDMlVxVkYgFH0VsPLHtnVqdyYSJDiCBDAcoGAdy/FuJBY5rTDoiI9DUa1B9KNGgm6IVeow9RiyMYlqVIvhK/6J9Pf69zy350G8yNMnUV0VzixQWK4RIsmPST5XSH9PU2WjNgEximIYSmAQNrh2spW8hIV1Y+wB5clkU3CJ0ViFUSy1iVSsrKzcIkdSH5Ywxg7ur4rx2VRCGjo5pFsUWbJAiDfuWGZQr8C+lXIgCT94rISDh6sbpK64eYYzu4u5U5f5fPNt7d1WDbR8YsKL9VVRdQyipzKH0Hq58NP9NYfDMUDBsYNwz3SYeBMymoxAGymvLVaVMvVolU47m+LcR/thFcq/7SRfiHDpEMGrfBuq7a5GNdpmKfu4pmgnccRDgTdJXkIb6yzWjVq/v0SE6LXUDMOa/Os5ZobZeuTzSzQLSWYnAyHJZFNwidFYhVErlw+LLyCrurOUSI1nh4kzv01bG9QRax0c0i2KLNkgRBv3B9Qa4gLsVUUqmzVAeeE60MDQEF1ydF1zztNBKZGVbENun3Nh1w8QTqPq7+UcEMQnh8SXs3C8v01VPY+F+L8R/thFcq/wC0kX4ttoEBdECllWoiubhwr4mEQmZIA/hvgPnUlqY4d4ppDPXDGVfquxASjsPqHXDnY+grJ11U/czfTBsdS9JNEuk/HliHJI02VGPkVBGHRWTcIkWSUKdPwcl5Ca0eEMJDEUlHrxd+8WdulTKr6xtUVLjcGrAxBFmmmRFIqaZQKTlLyaMNEO5JyYCoysgrLSruQXERV1i7Hyd9mXbd0us3afw3wHzqS1/DfAfOpLUNgCqRrwrh2s8kAQbpNkSIoJlTS8PiS9m4Xl+mqp7HwvxfiP8AbCK5V/2ki/cB9YaybXTVm+yTICdFDVPsCtWtUfMJCOzN2i/Zou25wOjyOQDlEpg3DMFAPUrAZ8yRH0RoB21jDLzipCnFy/TcxEVLMppgk+jnKTlt3hH1ayHlmKprdRo3MR7MTk3IWCVWkpNyZdzpu3WdOE0EEzKLYtohKXWSJrlAZPnxA2wGFeb11BTZxywRXRhqGV8qTZx4/El7NwvL9NVT2Phfi/Ef7YRXKv8AtJF+48QVUF/ANrC3T6S3LAd1CQhj1l2pu652CCYWSFcRUiiCre90WRo00Zo6AyjblWLnO1F59oiHp0gq/ELDPSEQsDRSPXibPCTiYHjJVm6Dksuk3TFRZUiZJ/LlOrxDArKpul7jnecnSKNYZP0U0UUOqoZRQxjH0UonMBSgIjhzFQwhErFOI/3hzkX7eLYLvnahU291sy9utTyXW3AuqhXlrTamEOiA6ZtEWLNFq3IBEfH4kvZuF5fpqqex8L8X4j/bCK5V/wBpIv3GSZNpGNcs3hSmbTjJCOnHrJs5I5Q1XJt1XJ9nKsziRZq4K6aIuCf5edircZaIlWNlW4LIX/FkvSXJ1ylO7iR5kUOkYDJmMQzW32RkAA2npJIFL/b1S9E9kkxB3LSL8d3j9047kfHO5R6kzYt1XDnGOGkK6KUvPlI4lADbucRFkcMoeOgm5xITlw6wkcLeSmRcJKSPuHEl7NwvL9NVT2Phfi/Ef7YRXKv+0kX7gYwEKJjCABl7LxpEy1erywgz5UipPrjY28c1TMKSCJG6CaKYbE7i6CTlE6KyZVE7tgRhJnUeVlYrFxYahO1ZcUpeNXb99JJRdUqSRDHUqOELJPmTcSJBiWNQoUFTGnVxbYOv7ueKa6n4BrKx6RlnHKtWWSqkylJxiwkWot6jbzDA7aCCbnx+JL2bheX6aqnsfC/Fp20Q9ZafaZd+i1Ty/dYy72Nq8iirAhqKclZSzN2cBElXynVrWYqLN8CLsPWHjZoyouq6cVWFUFNHlUqjJ3KaTjY1PVNpsZS4UkfHE3N33LVB4gZFwimslOYUpk0JlCMTsFpLhtP0jDGWENnHDxbkjfyXcYsBOH66GHYwxpQZ8OM8oIC8mY9AsRw6wDYSnk5N49GCpVdrRQCJiWzc3fENw2Hyy9iHq+usdcQ3LyrVlkqnMpScYsKa1ItzS61pCWal6s3iycswhmZ3ci7Rat80ZGg7k0Yx8MZZUOVBy1VZCIjolV4LF4Q4HKBiiAl+J5Pys2piAx8eBHE1LzMjPSCj6UdquXPMhzEMBiiIGxjmp1GOEYizLGcMUlSLJEVTOU6fhj5Dt52BJwhY5NJ0BgX5YPl624qpWMUkVvJe8OFkm6B1VzlIlkmQr8lcnTittxSZ8uG5FwWvzSxwMDfxMhZCjqJE9asALv7Pb5m3SJnks6MqPcx1lyUqThNlIKKPYaLlGkzGoSDBYizX4jkC2o0ypuZQ3RM4kJBzKP13zxUyrnklESS6fWIx7tRNRM6RxIoUxTcsC31RymaqSKomUAdw8MfLWYcUGmetscGnvInIZMwlMAgbULNP6/KoyUauZF1jnIrG8RQD+FCT0c5UyiYwgBcj5xcoPlIupqkAkfl67sHZXAzi7kKPmyDsgJtJQSxciU4HKBiiAh4c/ZoessjOpd8k2TuefJV+sZtWSCwaxGY7rFvCrHl1HqdGvcbdoYHbQwEc6XXSbInWWOVNLLGWFbIspCQqpiQ/Ki0WSu8yVo0KKbWuV5jV4RvExxOg28OemWsBCPJR6bot7TZH1rsDmWfnEVOTeMfvC9NsycrlWbrNlOrXSUSPywdfFIWdLXnyo+jviPELYDvLW0hCHEUdJpnWUKmmUTHxth2Ng2KEjOtk3ksQhEyAQhQKW1UKAt7M6MkyT667VB7SrEtFPB6wuq7MLQFhYSqBhBRq4I7aIuUh3T8TLmIiyZVrDX0QB8chkzCUwCBtQs0+r8qhJRy5kXOO8jx92iOmYSN5LLmXBkTLV6vLiDLnVMp2eo9BJo9FwzrfEBXZEpE5lBaLXjJ6KmUQWjJBs7J3jqFTATGEALYMo1CuFMV3LoqrWjiFknQHQrrErJOUlpCaemeSTxZ045VmzSVUmUpOMWFNalX+Jt9fNIpLEQVyxlhWyLKQkKoYkRyotFkrvNFaNSim1rNZjapDJRkYiCaPicRlgM2h42BSPsPLE2HGjmOQsFlQBbTZqgzQKi3RTSTnqxD2VmZtLMEHKeTsdr0WYJ1JzLReklToKkVTMJT0ub+8dPi5YR3P8Qym4M6ydPnOPr1hqKSlsnRhFygZMA58RkSkvVo6U6IAtyx05M7x1X1jjubxBDfWXMRhKFWsNfRAHxyGTMJTAIG02dLtDmO3WUSNyENg37jZ04Zqgq2XVRUrGY7ZAOkuvkFZFnX5xpY4NnKsTdJvyH1BrLmWXFUdehIMCDJS1wsU6I+k5l65DuCG3JB0u3IqVFZRMvKi0WSu80DRqUU2tZrUdVIZGLjUQTR8XiEcmVyKmiI/h1VY0kxbYmOU/wBNJMqSZUyFApOWZ4pGTxlJnOQBPywG5MvjJIhh3+I5aZmZZQnCGDbliueSruRIt64MBW5TAYPV5cuIyfRJGRsAmcBX5UJkaPoMC2OGxvFEN9ZcxGEoVaw19AAfHIZMwlMAlNyqFRk7hNpx0cnvqMxVVmNWJBLRyLtK3cPLhHpuau9BYkxXZevuRby0e4aKc+H9Q58alAxhEOQ+WsoKHVydYROYRHkQhlDAUgCY1Xw9bLIZNQWfo9nUcLVusCm5cJ+k3+XcQ/69irjf8QgJR2HnRaLJXeaKzalFNrWazG1SFRi41AE0fG4iGRkL61dCH4NQEmMNYI6SAN9MHqEixQeNlAUQ5Zzn0YrHblkJw+0csEMjNMYNVDBsPxDiKrR05KPsaJP5fLG2cE49kjD2gVRTbXypu24LI2KNEluzfWoNqonFLhKv56dfWOYcSkksKrnVKrytnt0bFJlESpEKkiRMgdEnjCAD5hrLmIwlAWsNfQAHyiZ0jiRQolPUKhKXGZJHxyIiFNpsbS4UkdHkAR5PGDSQbmbvGyLhHJ2J6oxqUpOx7IzJ1y4ffy2HuZN/MyxcsX1dhcLq3iZIVQbQFCrNZAoxcQ2SU5CACHlrLmIel11irrf8RiiU3RENho1Dk7vLlbNSCm0rNZjapCoxcagVNHx+IKtnk6q2mECdJUQ20A7DvrGGYFakiWImCKOImOyJUJRuVZtYGO1kzBUYBucU5JOQc3S5yV3nDSL8egTTBivJP27JqQTr1yITgK7HxSW3Q+IWiutbVXncO8AOqstdf1accRUikJFu6UomEAANxwnj49aiTTMmj0ZP3DYB1KUasTTkXMlBMXC8ZDx0O2BtHMW7RDuZW/K2w88T5TrdNpvoyVM6Bz/EBSP+8hr+ICkf95DXb/SP+8hq6SracukvKMxOLbWBPzSbd0QAdP6HVZR0Lp9AMFl2Me0jWxWzJqi3Q9wes0JBiu0dJgohkKju6RY1WZymOx72CceKdeW2ySIlL8SvePoq9RYIOiAi7t+P5+muzJyLQxmwhtzjYmQmHpGca0WdOMZ4UTg1EZixlTXkADYA/wCfd8rfldYOe/ewJ+aLb3m0VWMt0OpGyiAHSvGKJ6nLqLFRM9i9tubdqu6XIg3ROstjjBiyyqUta0gTRTSTRTKmkQpCfE1m6LhEyK6RFUpnC1LmVDK+jTMlVOG+vmPuSZkSFjuH+nszlO5F69GGr0TANvs8VHNmiQAAe82WHJYK1IxKhuiWbg5Cvyq8bJNzIuNu9sI64faY8Rfr2h4iZJD3kxCmKICUBCexNTrCoZVzEJoLr8ONcOfdGWkkiseHmptjgZ05kHeoCnV+sp9GJimzY2237T231NVmEsKRU5aLbPA7JKJ9ONddklE+nGuuySifTjXXZJRPpxrrskon04112SUT6ca6aYvpTJwVdGuMumRMiZCkIQpS/wDzbv/EAEoQAAIBAQIHCgwFAwQCAgMBAAECAxEABBASITFBUWETFCAicYGRobGyMDJAQlBSYnN0wdHSBSNgcsJDkqIkM1OC4fA0Y0Sgo7P/2gAIAQEADT8A/wD3eR/zSqvabDRdoWbrNBbQ00qoOqttG6SO56qW2QE9rW1C6rbbdRbbCw7GtpMUzKesG2kxlZB8rHzb0pi6zk67HM0UgYdX6tpkV2q7cijKbZhPejiJyhRlPVZv6VzG5jpGXrsc7SMWJ5z4MZmhkKHqsvmXpKt/cKHtschf/ci6RlHRZszwyBh1Zv1RSq3WHjyHm0c9LHJjIcaZh+7RzWc1aSRizHnPCP8Axws3YLfDMO0W2xUtsirYaTdn+ltUkZXt4Q86JyK8uvntmN7u4xXG0rmPNS3nBTRk2Mpyj9SLpc5WOoDOTyWNVN4P+842er22c1Z3JJJ1kngH+s64kf8Ac1BY54rshkbpNB22Gc3iY0PMtBYZisCk9JFbalFOCdDoD22OdkiCN0rS2gK+6L0Nl67DKFruT9ByddtG6xkA8hzHgJmkiah59Y2W8UX6JeKf3ro5RaQYySRsCrDWD+oaUEKtxYtrn5Z+Sx8VcyoNSjMBhc0VEUkk7BZsuLIMaZh+3Rz2X/8AIvf5jV2A5BzCwzADN4VhRo5VDKeY2OUGDjRk7UPypZcu+bqCyge0M68BjWW5yklG2j1TtFkH511kNJIz8xtH6eUVJJyC2VJ7+p6RH93RZjVmY1JOs4Wy7tKvHkHsL8zktSj3qXjStz6OQeRnLu0C8Rz7SZjyihsxpHeouNE/PoOw4YjVZENDybRssBTFrRJ9q6js/TiAszMaAAZybAlZrwpobxsGpe3DKaKiCvOdQ22HGWMisUJ2DzjtNh5LKKPHIoZWHJYVaS4nK6fsOkbM/LZTQgihBwIQyspoQRpBsOLBeWNBeNh1N2/poCpJ0WRsW8Tof/kMNAPq9uFaGe8OOJEusnXqFmH596cceU8ugbPKQK4wFEn2Nt29NoWxXjcUIwKagg0INoxSGZj/APIUaD7Q6/0y2S/TofFH/GDr19GGIg3m8kZI11DWx0C0YynznbSzHSfK4l/IvNP8W1r2WgbFZWGfaDpB14I2Do6GhUjMRa6gCdc26jQ4Hbt/S98BS7rnxBpkPJo22dizMxqSTnJweNPMRxYk0k/IabRjKx8aRtLMdJPlt3Um7zUpjew2w9VoHKSRuKFSMEDVGphpU6wRaQUkjJyxuM6n9K3aMu517BtOa0rUjjrkjQeKowXhwkaDST8rSAPep6ZZH+gzDy+7J+aijLPGP5DRrzYb8wjnBOSNvNfm07LEVBBz/pS6kPeyp8aTQvMOs7MN7T/TqwyxRHTyt2egb8x3RVGSGXVsDZxtrh/DQFUscrw5lPNm6P0nGmLAh8+Q5FHTl5rTOZJHY5WYmpOC5UmvJ0Nl4qc56gbAUAGgegbxGVbWp0EbQctru5XGpkddDDYRlwRPizIPPjORh0dlpkEkbjMVIqD+gR500gXtz2H/AApip/c30toaUmVvkLHRd41TsFbHPW9P9bbbw/1trF5cfO2o3hmHXWw0XiBTXnFDbTJdJSD/AGt9bNk3O+LueX92brs2UOjAg844X4eMeahzysM3MO04GNABnJtOBPejpxyM3MKD0Hchud5xRlaInIf+p6jh/DWrFU5TCxydBqOcenyKpd4+NK3IozcpscglbjzEdi81mzvNIWPX4OuWMNWNuVTkschvd2FV5WTOObos2Z4mBHIdR5cN1haU7aDIOc5LXmVpXJ1k1wfho3xJUZC/mDpy83oSeNo5FOlSKG13lIRiPGQ5VPOKYJH3C8asRsleY0PN6diFXkkagFsqtfXHHb9g80bTl5LSGrSSMWZjtJ4BzLEhY9AsfOvBEQ/yINjoaYsR0C2oK5+VtuOPlb/6rwAf8gLDO6R7ovStbDIVYUI4AzhTVXGplzEWairJX8mU7CfFOw212/EJsZwD/TTL1kjow/iR3y9RlxcyDoy8/oU/6W8EDnQnrHRhSPcJv3pkPSKHn9Nmohu6HjytqA1bbI35N0jPEQbdZ2nCcgA02bLu16BBYbEznqsM5mOLHXYo+ZNh5sMYXs4Z854xjD/sMts4hn/MjPP4w67A0F5h48Z5xm56cDIqyE1kgGzWuzotdoEigdTkbJjEjnPVgvU6xmmha5T0VtEgRANAAoPQskBaLY68ZesWGQjBxb1ECf8Aq38fTUoIu11ByudZ1KNdpDkHmoNCqNAwqaS3yUERryesdgsM96vCgkH2RmXt2+EYUZWFQRtFjxtzA/JkO0ebzdFh4tcquNanMRwfw+7kqT678UdWN6H3cyxj2H4w7cF5Y3Z+RxQddPTI4sEINGlfQB8zqtKcg81F0Ko0AYTxorr4rzjW3qr1m0S4qRxrRVHJ4c+K2ZozrU6DaRqRXpR4vsuNB6jwL5eioPsoKdpPoe9XYxsdbIfowwQTJKp2qQflaWNZFOwivpeBDJI7HIABaIlLrAT4iaztOc4TR7pc5B0O47Bz22eQzKUkjcVDA2nfiPnMJPmN8jha77s4Oerkt8/Q92vgUnUHUjtAwm6IjHavF+XpeOkl9KnO2dU5s55sMDf6eJxkncaT7I6z5JOhSSNhkINmYlI53xJEGonMeW0TBhc4GLY5HrNq2CwFABoHoeHc5RzOPrhhmlj/AMifn6WiTFhQ+fIcijp6haZzJI5zlianAv5l6lHmRjPznMLQRiONFGRVHp7eUh6BX5YY78/Wqn0tcV3WcA5DKwyDmXtw38Ce8EjKoI4qcw6yfT5uE3cOEX7+C+lbvE0rk6lFbXqZpWroqc2C5/6meoyEKeKvOadf6AFwm7pwtfz1IvpX8QlW7ih83xm6hTnw/iUpKk/8aZB14x/QDXYp/cQPnhlvkrdFB8vSsMLzsNrGg6lOCRgqjWSaWu13SLnAy9df0BebxFEBry4x7uGVXlP/AGcn0rdkjhGyignrJwG9q7DYvGPZ+gXkkvDDYAFHacMFziUjbiivX6NGuy54om3R+ha20PKwiX5m2glWkbrNOqx0QwovytsnI7LfFP8AW228Me20zY0krmrMdZwQXeWTnxafPyAjiqTV3OpVGU2zC8Xw1J2hBm5zY+bAioB0C3tSVHXYZ1niCk/9lpZsg3VsaJjsfRz2YVDKagjhzJujO4qsCaDTSTosTmSTFHMBkt74298be+Nvakxh12GcTRBW/uWlmoAJjWNjsfRz0swqCpqCODEALzemUNiE+aoOSus2OXJLS3vjb3xt74298be+NvfG3vjYeZORIp5QbXUhbzEpyZczLsOXwtwu6Q8jHjHtGBTUWzUR8XsFviW+tviWPzsNEhD9osNE13AJ51pbS91mKnoavbY+beoyF/uFRYiuNDIGHV6EHnyvSvINPNbKBebzVU5Quc89LH+hCdzjHMM/P4KO4PU0zVZfDzJWKEnJGPWfZqGm0hys5zDUBoGwcJjRomNWh2p9LToHjkU5COEjogroARfAE0aFjVoRrQ/LNadcZHU5x9eAL7KWrpqxI6qeCW5hXOjGLinYfCC016kc10cY5PBLmeGQqeqwyVfiSgfuGfnFmyb2vRCEnYcx9ARjGeSRgqqNpNhUG+zLxB+xdPKbN50rVpsAzAcnBOiGFn7BY6ZisfeNjoe8j5Vt78/bb2bzTtFhphlR+w2JpjSxYijlY5LXuhvDp4qgZkXYNfhlGJBGT/uSHMPmdgteHLu516hswtlEs9IlI2Y1K2Hmx3lSeulvVmQivIcx5sN+ekRY5IZTm5jmO2nC3dR/guCYMUEj4oyCpy81vih9LfFD6WGiG8qT0GlvVmjK15NeG/OF4xyQyHMw1A5j08ALiuziqTAZsamY7bDTvnP1W+KH0t8UPpaCRonoajGU0PZgjiMrCWTEGKCBn57fFD6W+KH0t50m7Y5HIAMtnOPPO4o0r69g1Dwt5kMtYlxjCxykMBorWht6qRlj0CxzNJHuY/ypY/8AJeV+VbajOfttqE5Hatv/AKrwh7SLDOwhLDpFbDOrCh4K5N73hqlR7LZx1iwFXukxpIvJ6w2jy11rDdIzx32nUNpsprFdIiRGvL6x2ngVoZaYsa8rHJbOYLmtTzufkLD+revzW68nVYZlRQoHR5L+HRguAchlYVPQKDpwMaAAZzaQB44JBVLuNGTS3ZhceK4yrtBzg7Ra8km7TEZRrRto68ANQRoNtz3Kf3i5D05+fg74/iMAjmP+B4DjM65V2g5weS14Y7hKc6H1G27dOG6ne05Oclcx5xTh79m75wbwbvr5Ec5VQK8M/wDLCpPTnsc25NjpX9rfI2GXGu+SQDahy9FbIaMkilSDtBwxnGSSNirKdYIsaKl/A/8A9B8xz2cYyuhqGGsHyphQ5apd9razs6bSmrySGpOEGjytxY4/3Nm+dhl3MjFhU8mdufosuRUjUKoGwDycWnvcjDkxjTqpg/D0N5ZSMhYEBes15uDHEZ4DTKsiCopy5Rz4YZ0mUasZSD3eDvr+IwCGY/4HgzRkxsR4kgyqRz2jYowOgg0OCWFLwo2qaHqYcPfs3fODeDd9fLKUWZRiyJyMMtlqTDSkyDkzNzZdllNGVhQg7RhZuNCTVodqfTNaYVV1PUdR2eUOKTTKai7A/wA+yzkszsalic5JwE0AGmxoyXMZJZB7Xqjr5LRiixxrQDykIeyxkY9eAQwgHZVuCUYHosHbtwblD2twd9t2DBuE3d4Qv0tP7jga5Sg9K8Pfs3fODeDd9fLgOJe4lytscecOuzH8qdMsco1g/LPhlYb4upOQj1l1MLTLVWGcawRoI1eTXpeJTLuCeuduoWkYs7salic5JwSsFjjRalidAFjxkjOVLvya226NHlYjbstjntwYkPa3BxG7LY57cG5wjrbg78fALtN3eDdomlcnUBW14meVuViT88F3umJXa7D5KeHv2bvnBvBu+vl8mdWGVTrB0HbaVqRXimVD6r6jtzHDeGAvMNa4vtqNY67TIHjkQ1DA5j5IeJdoa5ZZDmHJpNrw5d2PYNgwTMEjjQVLE5gLTLx3pUQA+YvzPlm5N2G2McFIP5cHc27LYx7cGJCOtuDv18Auk3YOABUknNZGBvd4Q5JWGZFOkA5zpw/icu7ZRl3MZF+Z5+Hv2bvnBvBu+voCZSkkbioYWnb8qQ5TEfUb5HThvL/6Z3OSGQ+b+09R5fI41LOzGgAGcm12JiuiaMXS1NZ7KYDa8JWCNx/8dD/I9Xlu4v2G1cF73PF3JwuLi1z15be+S3vkt75Le+SzoVruyaRYknBSD+fB39J24FhePc42CmrUy1NvfJb3yW0breAB1CzZDd7rVQw9ps57MMZEl7lAyJGDm5TmFokCIq5lUCgHD37N3zg3g3fX0DOmI6Np/wDNpavdZyPHTUfaGnADUEWuACS1OWRPNf5Hby+RX8Y14KnKkOr/ALHqBw3J/wAlGGSaUdoXt8uED902r4KsP8+Dv6XveArWSVhxIl1sdHzsxxrxORxpX1nZqHgN+zd84N4N319BAY92lpljkGY8mg7LXeQxyIdBGBGxZ0B8eM+MPnyi06CSNxpUio8ggjaSRjoUCptPIcRSfEQZFHMKYLxIFLUyIuljsAqbXaMIus6ydpOXy7e8ndPg8aEdTcHf8vePCOSscRI5zmFs5u8JDytsJzL12XOFGVzrY5yfA79m75wbwbvr6DipFfQozrmV+bMebDcTul3qcpiJyjmPb5B+JvRwDlES5T0mg6cN6rDdqjNGDxm5zk5vLxdZO6cKSxBTNEr4uRq0qLfCp9LfCp9LfCp9LfCp9LLd5CCLslQcU7MO6Q9jcHf83fOAXKRsSaMOtarlobfCp9LfCp9La1uyD5WGhRQeD37N3zg3g3fX0HeI2jkU6VIobXeSiMfPQ5VbnFMCSYk41xtkbqy81mFVI0g+HuNLrFq4vjH+4nBepliXZU5TzCptdoliQbAKeXi6S9w4d3i7rcEXWXuHDu0Q6m4Jv83fOAXCTvL4ffs3fODeDd9fQkR3teSB5pyoTz1HPhulbrLrquY/208Ndbu8uXWAaddLSuXYnSSanB+Hw4sZP/I+TsB6fQAuc3cOHfEQ/wATwRdJe4cO7xd08Hf83fOAXB+8vh9+zd84N4N319CXiBgmxxlU9IFkYqw1EYJ4lvEYPrKaHqI6PDX2dIBtFcY9S4b/ADPOTpxRxV6h1+gN5Tdw4d9R908Hec3cOHfMfdPB39N3zgFwbvr4ffs3fODeDd9fQsku7xjY4xu0nBLNuD8jjF7SPDEyzsOhR88BNBaC6RoeUKK9foDeM3cOHfadzgi5Tdw4Tek7nB39N3zgFwbvr4ffs3fODeDd9fQt4uzRMdZRvo2CGVJAdoINpUVxyEV8LBcV6WZjgmvcSEbCwsPQG8Zu4cO/F7nB3jN3Dh32nc4Jvk3fODeB76+EGgyr9be9X6296v1sb7MQQc/HOA3FhV2AHjrrt71frb3q/W2pHBPV6ChvZSuxlP24XuMVeUKB8vCpd4V/xr88G/Eboy/L0DvCbuHDv0dwcHeE3cOHfi9wcHfcvfODeP8ANfB3RjFMYmxTM4z1I0DNS3Lblty8Dlty2Q1V43KkHlFrioO6nPLGcgJ2g5Dyj0DHfIm7R88Iu+L0MR4Xc4e4MG+f4n0DebrJEvKykC0TFHRhQqQaEYL9eWljB0oAFB56Hg3m7SRLyspAtE5R0bOrA0IwX68mWMEZ0ACg89DwVvLupI8ZWJZSOY4NyW7Ix85q4xpyADp8G15eVGPnIxxgRzHwSQC7htDOWBpzAdfoE3iGn92Hc377eFku0Lf40+WDfsYrymnz9BN480IBEm1lOc7bIwIhxBGjfuoSTZFCoiigUDMAOEw408ABEm1lOc7bIaiDEEaN+6hJNkUKqKKBQMwA4MYpHeoSA6jUdY2GwNdyjiCE7C1TaEUVF7TrO3wcYpHeYTR1GraNhtoBuoJ71vhB91vhB91vhB91vhB91vhB91vhB91vhB91gamOKERlueppaIUVF16STpO30DLfYlpyVPywm7Y3SxPz8LPcgK7VZh8xghvUcnQwNiKj9US3lpabFWn8sMdyiB5cUHwqSSQMeUAjsOGa6Rlv3YtD1g/qi6XTGbYzt9AME86RgcrAWjUIOQCnhbm6XkcgND1E4fw+8NHTTiNxh2no/VBvBjjPspxR2YLu5vL8iCo66eGvMLxNXUwItd5WicHWpp8sH4lFuYqcm6LlXqqOf9TrCY4dsjcVes15rHKTgULdYjtPGb+Ph/xJBOpAyY4yOOmh58F2lWVDtBra9QrJQaDpHMaj9TQjfN5APnHIoPNU84wyJu8/73y9QoObw/4Y2+EoMpTM46MvNhJN4ueMf71Hb0/qW6xGRsufUBtJyWvUpkbZXMOYUGCBt8XnViLlpzmg57Dw7gqynMQc4szbrdm0GNs3Rm5sF2kEkbbR8rSrSSOuWNx4ynkPo5sqxVLORrxRU2+Gk+lvhpPpb4aT6W+Gk+lvhpPpb4aT6WY0BlhdF6SKC0gxkdGBDDWD6OuzB74ynI0mhObOdvJh/EyJBUZViHijnynnHkP4dWWOgyunnJ8xyW24L6Qsw0RNok+R2clnGMrKagjWPRl0u7SKp0tTIOmlp3Lu7GpJ+ngJIjPdwxrubLTGA2EHq9G3pSl1j0qdLnYO20jFndjUsTnJwXYia9tTJig5F5ScnTZRRVGYDV5Ff3JooyQy5yvIc4w+LcZ3P/8AMns6PRm9f5DwO9Zu76MQUjjB40r6FFpDREB4saDMowTOEjRRUsxyAWmpLe5B5z0zcgzeR3hcU5MqnQw2g5bKcaGWnFlTQwwA1BGiy0S7XlzQTDQrH1tunl9CqaMkYMhU7cUGlh4xjbKvKM45+DvX+Qw76kjxxM68UUoKA7bfEyfW3xMn1t8RJ9bXa8tHElSaKNpwb1m7vBGUk2U0YRhpAp2lQRY5MeJwaHUdR9CJ4o86RtCqNJtGSLtdgeLGvzJ0nDIv+iicZY1PnnadGzyWKr3W8Uyo2o+ydItC1GU5iNBB0g68ANQRYUSC/to1CT7umziqspqCNYPoLKl7vkbeLrRDr1nAh4y+bIulWGkWjAF4uzHjRN8wdBwjzppAteQabXqPct3CYsa5Qa5cpzasO/pexeBv18CRvGyRUxuMKVy2b+hevynrsrkPMbHMRgAqSdFhVLze0OWU6VU+rrOnASBNd2PElXUR2HRY0EsRPHibSrD/ANr6CYfkXWM/mSHk0DbZTSC7oeJEuoDXrOnDE2NBE4/+Qw0/tHXYZAAM3k0K/wCnvNP8W1qeq0RoVYZCNYOkHXhrlu7txo9qHRyZrU/MhY0kjOpl+eb0BlS93yNs2tEPaeAhoy+bIulWGkGy8WW51xpQ9MyjSNRscgnko8p5NC9dmNS8zlj18CW9yuu0ZB2g8Br0XG0EAg8AZ7teTukdNgOUc1myYztWFjsbRz9NhVLze0P+9rVT6us6eTgGizQMeJKuo/I6LEASxE8eJtKsP/a+XqKksaACw4rXk5YYjs9Y9VpTVpJDU8mwbMKGscZFGvJ+S7dNo1CoiCgUDMAPKIx/p70g48Z1bRssT+VeEyxyjWD8s+GM1WSJipFhk35dhxuVk083RbSI34y8q5xz+W0KXu+Rtm1oh16zhjjaV1iQsQoykmmjhnRDEX7LVBdpWBkI1BRp5aWu0YjRdg0nbp4CIEdZMizqM1ToI12XPJGm6L0rWwzg6OFdo91mMaFgi6zqGE0WaBjxJV1H5HRYgCWJjx4m0qw/9r5YM5JoBZcghupBUH2nzDmrYnJdLuSqke0c7c+EmgAFSbZHhuDZGfUZNQ2dNkFFVRQAagPKpBlVxmOsHQdts5QCssI2jzhtFhhXKskTlSOcWGSsoxJP7hn5xY590TdE/uX6WOZVmXG6DltrHlFCl7vkbeLrRDr1nDIcp81F0sx0AWlAN5vRHGkOoalGgWyve7nGM2t0HaMJ0WbLu16BBYeymc9VhlLXnIgOxBk6a2GQJEgUDmHgD/VVMSQf9hQ2zi63vIeQOPmLDMJFyNtBzHmwnLLKw4kS6WY/+1s4/wBRM6gtO1MpbZssxLXi7IKmA+svs9nJhPFmgY8SVdR+R0WIpLEx48TaVYf+18oGdpZAo67D+ndQZSecZOu2ia+P/FfrYn/YiO5x/wBoz8/APjNSiINbNmAtSokZfy4T7A17T1eXHLu8K8Vz7a5jyjLYHi3q7gvGRt0rz8HWLDMI7wwHRWw9ch+0W2wRn+Nvho/tt8NH9tvho/tt8NH9tvho/tt8NH9tvho/tt8NH9LbbvH9tvho/tt8NH9tvho/tt8NH9tvho/tt8NH9tvho/tt8NH9tvho/tt8NH9tvho/ttMhRtziRGodRAqMMhynzUXSzHQBaUA3m9EcaRtQ1KNAwyktNc3OIrNrQ5gdma1aNNNMuKByAkmwym8zrUKfYXMOXP4Vs6SrWm0ajtFmym6Xh6Mv7WOQjltjceWaVWoNgUkmx4007DjytrPyGjAwoQRUEWYlrxdkFTAfWX2ezkwyLivQAqw2g5Db4eP6W+Hj+lvh4/pb4eP6W+Hj+lvh4/pb4eP6W+Hj+lvh4/pb4eP6W+Hj+lvh4/pb3Ef22+Hj+lvh4/pb4eP6W+Hj+lvh4/pb4eP6W+Hj+lvcR/S3sRovYLHQLwyjqsdMjlj18FzRY4kLE9Fs+84TV22M2ZeayeZGtKnWTpO0+gGFCCKg2bLut0ACk7UzdFLDNuJxZKbVPyJsMhSaMoevy003/utN1Dav2avr5SQcbGzU01tXj0/2xJ52J7Plrf15hucfSflbObtdMi8hc5egC1KEovGblbOfQpzrNGHHXY+ddJSnUajqtoW8wBusEdlhm/MZCekW1x3lD2m2yVD/ACt7xPut7xPut7xPut7xPut7xPut7xPutAhkkkLpRVGc58KuY2dWUUYCtMp2i3vE+63vE+63vE+63vE+63vE+63vE+63vE+63vE+63vE+63vE+60Sl3IZWIA2A1OFDRlPiyLpVhpBsgAvF2J40TfMaj4Bc7zOFHXZcn5KYqf3N8hbQZnaQ9VBbVHdl+dbajdkp2W0hoSp6QbHPJdZQ4/tanbZv6E/wCW/Qc/N4ACpJzAWBKXm9ocs2tVPq6zp5MKLjMEoAo2k5Bb3qfdb3qfdb3qfdb3qfdb3qfdb3qfdb3qfdb3qfdb3qfdb3qfdb3qfdaBzHIhNcVgaEYAhkKKwHFFKnKdot71Put71Put71Put71Put71Put71Put71Put7U8Y+dvbvNewG2kQxM566WGcFhGp5gK9dh/UMeO/wDc1T6U3jL3Th3+/dXwmV73c4x0ug7RhjcCVK5JErxlPNaRA68hFeDEMZ5JGCqo2k2FQb9OuT/ounlPRY6ZXJpyDMObhjVZchu15YtQey2cdlgKvc5yA4/b6w5OF+I4zTOpodzWgxecnqwnLLMw4kK+sfppt40szDjyvrP00eE3/N3jg3jJ3l/QG8Ze6cO/37q+Eu0TSSE6gLXmZpBFGKKgJzAYJ5AGOhEHjMeQWjQIvIBQcAZI4l8eVvVUf+0sjfk3OM8RRrPrHaeAfNiQseqx0tCV7aW2BT2GwztJd2A6aU4EbBkdGoynWDY0SC+nIsp0B9R26eD+HlknA0RtTjcxHXhrvmKQKA0q5mBOmmSmwnwu/wCbvHBvGTvL+gN4y904d/v3V8Jezu14AP8ATB4o5zl5sP4gKQ4wypCM39xy8lOBEKKgPGkY5lG02qVhhB4sSah8zpwqaSXqXixpz6TsFs5D1SIHYoynnNhmWGMKOrCdBsf60K7nINtVz89hUm7SUWZRsOZuo2jOK6OtGU6iDhyLcry5yuP+Njr1Hm4EyGORGzMpFCLK2PA58+M+KflzYLtKGYesuZhzitp41kRhpUio8Jv+bvHBvGTvL+gN4y904d/v3V8GNNt1MUOXNGuQdNK8+CWQGYjzYxlY9AtEoRFGYACgGFQSzHMANNrmxS7IMznS55dGzD40V38V7xtOpe20S4qRxqAqjk8Ai/lXtBlOxx5w67R5j5rroZTpBwKQyspoQRpFrkAl4GmQaH59O3gfhzYshGcwscvQaHnOH8Mk3IVz7m2VfmObwm/5u8cG8ZO8v6A3jL3Th3+/dXwDjGS6wUL01muRRy20VvQ+23xQ+208LRpKbwDiEilaUwki6wE6s7nujgfidVYg5UhHjdObpw3VuKjDJeJBo/aNPRYCgAFAB4KEFrreKZVbUfZOm0DmORGzgjBjbneUHnRnP0Z+a0ihkYZiCKg4bxE0Tg6mFLXWZ4m5jTBeYdzeFXxcoNQa0ObL02+KH22+KH22Y03YOJVXlAAPRW0qh0kQ1VgdIPgN/wA3eODeMneX9Abxl7pw7/furwwK2mnc5TmFaADYBQcJ4RPJ+5+Me0cCFzd7vlyYiZK85qefBepAlfVGljyCptdowi7dZO0nL4CFcZ3bs2nZZTRGeMPI41muQcgtIwU3mKMI8ddJAyEWcBlYZiCMhslIb4FGcea/Nm6MP4a+9zU5SmdD0ZObgfiECzZvOHFbsHTwrlMrRVPihwajkqK8/gN/zd44N4yd5f0AblItSaZSKAdOHf791eHim26t2ngxuGnvLqQpUHxV1k5rIoVQNAGbDFdmxD7ZGKvWRY58EQF1gJ1nK56KDn8BCuM7t2bTstC35F3rn9ptZ7MO9F8bPTzeqlr1C0TbKjPzZ7XaVonG1TTBf7saD204w6sbgXAsyR1puqHOo25ARZDRkkQqQeQ8HHh7G8Bv+bvHA9ykVQTnNVNBzA+n2H5V2TLJKdg1bTksrViucZ4o2t6xw3tmvTA6A3i9QHDxTbdW7TgWCIgSIGpxjrt7hfpb3C/SwyAAUA4F6vcaHaBVvkMN5Rry+0sajqpgiFXklaiiwNDKt2OJ9eqzZMeM5jqIzg7DhhXGd27Np2Whb8i718b2m1nswwP+ZIchmI8xfmdFo1CIq5lAFAMF7RLwOUih6wcG+0jbkbint4OuSMMesW9wv0sIJCCIF9U7MOPD2N4C+ML1EdBDZ+sHBGwZJI2oynWDY0WO/gUV/wB40HbmswqrKagjWPTgqrS54oT/ACOzNaQ1aSQ1PNqGzDd3DTykUEhHmLrJ06hZFCqoFAAMw4eKbbq3acG4Rd48Nr27dCf+cKXGEf4DBdYlmdAcjyNpPIKdJwPQXi7MeLKvyOo2kFGU+NG2lWGgi0C4zu3ZtOy0LfkXeuf2m1nswwv+ZLmMpHmL8zotCoWONBQKBhkuVDzOfrgS9xEf3jh73k7pw48PY3gLkC0BOTdF0oTt0bbRMVeNxQqdRGGuW7ueNGNaHRyZrHxlzPGdTDQfTKglmY0AA02UlJLwmR7xrodC9uEmgAGU2NGS55pJB7XqjZn5LRLipHGKKo5PAYpturdpwbhF3jw0vbqedP8Axhe4wn/AYBGIb3iipSnisdlDTmwuQLzdmPFlX5EaDaI/k3auc+s2s9mGF/zJMxlI8xfmdFoVCxxoKBQOBFcannc/TA97iX/McPe8ndOHHh7G8Cq/l3uNcp2OPOHXY/7U65Y5RrU/LPhU8YDKrjUw0i0FBebvXMfWXWp9MfibmNiDQiIZW6agc5wv6oyKNbHMBalcdh+XCfYB07T4LFNt1btOCSCIIZ5QgYhjWlbfFp9bfFp9bNmeNwynnHAut6jkPIaqe9huoa7PsKnJ1EYHBV0YVDA5wRZ2rJEMpuxP8dujgwt+ZJmMp9RfmdFoVCxxoKBRwbqEuy/9Rl6ycAvayNyLxvlwfUlvCqegm3xafWzQOABekqTinbhx4exvBSDKrjMdYOg7RYZSAKywj2gM42jCZBFeFrkaNjQ9GfmsRUHX6XS5swG0ua9gwTzJGW1YzAV67UG6SHK8h1sdPg8U23Vu08F3AvN2LcV00mmgjQbSKGU6wRUYZ7s4T9wFV6wLA0IOg4LwovEAPrLkYc4oebC4KujCoYHOCLO1ZIhlN2J/jt0YYW/MkzGU+ovzOi0KhUjQUCjg3WFpDXSQMg5zQWvEjSudrGpwXG7lVNPPc0HUDwL/AI35ozxxilSNpJp02Y1ZmNSTtPBx4exvB6ja+zMk8SZEJpXGA0HC9ziYnaUHpfeP8zg33F3x4QilopmKkjxlJqrDYRwoot7y/uTi9gHAvTb5gIGTFbKRzGowXWUSLt1g7CKi14jDU0qdKnaDkwuCrowqGBzgi0hxjdLwSAh1K2XJsNkYFobsxd5NlaUA6bQqFjjQUCjhIRNfSp0+anzPNh/EW3y4IyhTkQdGXn4H4fCt3z+d4zdZpzcL8QlXcQwpVEBGNyEk9HhN9v3MO8Ye4PS+8f5nBvuLvjwqCkd4iOLIo1V0jYbaBRPpb9qfS0ULvFG6piswFQDQabaRgcC9QA6xkcd08D8MrIoAyvF569VebDe2GOc+4Pmxxs12dQyspqCDmI8FeFIusFa0Prt7I67TOXkdjUsxyk4IiJr02gRg5ufNz2UBVUZgBmGG7QtK5OoCtrzM0rk62NcF2hx3kiAJxiaKMvP0W/an0t+1PpZDURTMFQ8oUZbRqFRFFAoGgDwm+37mHeMPcHpfeP8AM4N9xd8eQvJu8GTJiPlHQajmwXeUGRR5yHIw6CbTIJI2GlSKg4SKEWvrloiBkifOUPaNnJhJojVq935Na7Oi0oqskbVB+nJ4BhRburZI9rnRyZ7TGpZswGgAaANWCRgiIoqWY5gLXmkl6caDoQbB214F/bdJgDmiU5uduzD+JybuajLiDInzPP5Bvt+5h3jD3B6X3j/M4N9xd8eQ3A7nPQZTExz8x7cNyBe7YxytETlH/U9R4E60OtToYHQRaQlrveQOLIvyI0jCTx4Wyxycq5ufPbMZogZIjtpnHXY6I5QT0ZxhGdnYAddl/oXT81q8oyDnNmyF1aszD93m83TZjVmY1JO3ATQADPZxW7Xdx/sA+cfaPVwIIzJI7HMoFTaV6QofMjGRR0YJ5RujDzUGVj0A2hRY0UaFAoPIN9v3MO8Ye4PS+8f5nBvuLvjyGaJo5VbMVIy2gmZI5kNQ6g5Dgu8gbJ5y6VOwiotKiuOQivAkzaGQ6GU6DZm4l6RfF2ONB25jwBmZTQ2GYLeXp221b5YfO3/2zM3aeBKcVI41qSbCjRQZ0u+32m25hwb6WlnI85FpReSprzYcYQCIHjRR5yae0ezyHfb9zDvGHuD0vvH+Zwb7i748gAqSdFhVL1e0P+7rVT6us6cIYNeJacWKOuUk9lkUKo1ACg4LijI61DDUQbEljdZKmJj7Jzr1i1aCQrVG5GGQ8NjRVUVJ5rGhxp1/MYbE0c9LEUkvMnGkfn0DYOF+HY26RqKs0TUqRroRXpwoaMp8WRdKsNINowBeLsx40TfMHQfIN9v3MO8Ye4PS3mh24zftXOea13u+4lpVxcY4xNQNWXBBOkrAZyFYH5WbNdrzxHJ2aDzHw8Z3O+3hDldtKA6hp14c8szDiRLpYn5abGhmnYceVtZ+Q0eAbIySKGU8xs3n3N8Qf2mo6raFvMHzU/K2sSsvattZvB+ltO5q7nsFhnRAIlPaeuw/qBMZz/2OXwOV73c4xm1ug7RhQ0ZfNkXSrDSDY8SaImpjcZx8xsPhkzySuFFrpO0jzMmKjVWnFrlPRhggjhxb0MRXKqBkbNo00scoIOf0pItQhyrAD5zbdQs5yvI1abANA2DgDKCDQizUSK+OavDqDHSu3OLOAyspqCDpHhVvUokxs9cY1wxAG+xuQXkb166V7PKUUs7uaBQM5NieMwyLI+llGgHC95QR1zFgvGp0jwsyne11BysdZ1KNdqnEiBpHGNSro4JIBiY1eEa0PytOoeORTUEekv8Abu0Z8+Q5uYZzyWncvJIxqWJw+skDEdIFhnVhQjDEhe5OxylR4yc2cbK+FC1vN2Uf74A8Zfa7bA0IIoQcEJqrLp1g6wdVoVG+LtXN7S61PVgGUkmlLRkrLfsUNjHSEByU22BqYrwA6NspTssaDFkb8qQ+yxzchsRUEeEpxQx4znUq5zYZN8OA0r8mhR12rxob0AysO0c1koLxdmPGib5jUcCKWd2NAoGck2Q0klGQ3kj+OzThQg3m8sOLEvzOoWhWgrnY6WJ0k+Eu0RdtZ1AbSclpm4iVyRpoUbBh9aKJmHULerIpU9Bw356RYxyRTHNTY2blp6SuMIkdf/sfL3adOBiFVQKkk5hZ1D7nKuMl32AaW1k2GQACgFiOJeY1CyodYbTyGw48MwFBKhzH64LrMsmTSAco5xUWlRZFOsEVHhQC95uqCgmGllHrbNPLYGhBFCDghNVZTn2HWDqtAlbzdy2b2l1r2WBKXm9Ics2tVPq6zp4A/wDxbzV0ps0rzWOQvTdIjzjKOcWOmGUN1aOGM5JoBYf0Lsd1fqyDnNjk3xPR5OZcw67Nnklcsf8AxhQ0ZT4si6VYaQbQrW9wSMAYDTKT7Oo2Q0klBobyR/HZpwoQbxeSOLEvzOoWQZWPjO2lmOknwt6czzAHOq5FHSerDMA92ubjihdDONNdAsooEjUKBzCxFKuvGXaGzg2vVTdpmGUUzo20deBGDKwzgjMbXi7qZP3jI3WD6RW9FByKAB2YIA94xTpKio66cC7XrcsbSVcHJ0qMJuUYJ5BT5eGAL3m6oKCYaWUets08tgaEEUIOBlKExsVJU5CMmg8MZnjcqRziwIx4L02MSNjZwbXmMOtc4OkHaDk4DIHmncYwgBzADSxz5c1jnR5Ti/2jJw5VxJAjEB11HWMKEG8XkjixL8ydAtGMrec7aWY6SfDQ3KMAcpY4Lze443/aWFeqygBQMwAzYboFvEbUzFSK9ROGG9SoOSoPz9IyTCVdoZQcDuYJWOZQ4xa9NOBJNvmVR5qgELXlJPRhS5R1GokV+fhxV7zdUFBMNLKPW2aeWwNCCKEHCcsszDiQrpYn5abHjSTSr+Y70ytjDKNlM1s4ul6NGGxXzHnpYf8AKhAPIcx5uAl8lVa6BkPz4AvbLl1AADCTQACpNmP+/ewVqNi5zZcu7XleIp9lM3TW2V73c4x0ug7Rz8BCDeL0w4sS/M6haMVLec7aWY6SfD3i5LQ6yrEH5YLreElprAYE2nQSRuDUFSKjD+IsII0rlxagsegdeG8TyyjkxqDs9IzJvacgZmGVSeUVHNhiASG/KMYhdAcZzTWLUrU3hVI5ia2pxEhP5YPtPq5K2narHQBoA1AYJpQZSPNjGVj0CyqFUagPIMrXm6oMk2tlHrbNPLZTQqRQg6jbPLOw4kS6ST8rGhmmYceVtZ+Q0YWyFJUDA8xtdYt0VYHO5sagZVPLoph39L2LwN+vgaKSRtybFJxRWlbD+sy48h/7HLwDV73c4xn1ug7Rz20jVZCDeL0w4sa/NtQtGKls7O2lmOknyD8Ok/Mpn3JshPMaYQ1Y2TK8Fc9BpXZYiuLLKI2HKGobAcWC6HHqdrZhZRiwQKeLEuobdZ04J5FjjUaSTQWukCxVGkgZT019IzpQNpRvNYbQbRNkamR10MNYPCOYWvyALGwywxZwOU5zzeRHPI0dGPKRnsPMhjCjq4O9f5DDvmSX8qHGGKaUy12W+G/82+G/82+G/wDNr1eGkjx1oaHWMG9Zu7wial2hAJO2mey+LHEgVRzDyGeMxyIcxUihFpCXuk5GR01cozHhqCLjG4z1zyfIdPpOIHe96UcaM6jrXZatEvUQLROOXQdh4DmixxKWP/iy0aG6jjJCdbes3UPKd6/yHgd6zd3ylsqOMjRt6ynQbV4t6hUnFHtjOp6uA5oqRqWYnYBZSGjuBPGf3mobLKAqqooABmA9KOKMjqCCNoNmztc5Cg/tyjqtqIQ9dLDzZZsVTzKBbSIkAJ5TnPP5Ve4GixvVJGQ9NLQsVIYZDtGsHwG5GC6hhQyEkYzDZkpz+VEUIIz2bKZbqTExPIMh6LeqcRvlYea0gQf4itqUMirVzyscv6VXxTKgJXkOcW/c31t+5vrb9zfW37m+tv3N9bfub62U1BdS4HMSRZRQBRQAf/u3/wD/2Q==;" vertex="1" parent="1">
          <mxGeometry x="445" y="84" width="30" height="30" as="geometry" />
        </mxCell>
        <mxCell id="80G_cJ_iZyhu6avmu4dn-10" value="&lt;b&gt;gFaaS abstractions&lt;/b&gt;" style="text;html=1;strokeColor=none;fillColor=none;align=center;verticalAlign=middle;whiteSpace=wrap;rounded=0;" vertex="1" parent="1">
          <mxGeometry x="120" y="44" width="120" height="30" as="geometry" />
        </mxCell>
      </root>
    </mxGraphModel>
  </diagram>
</mxfile>
